<svg width="18" height="18" viewBox="0 0 18 18" fill="none" xmlns="http://www.w3.org/2000/svg">
<path d="M8.99972 17.3571C13.6152 17.3571 17.3569 13.6155 17.3569 8.99996C17.3569 4.38444 13.6152 0.642822 8.99972 0.642822C4.3842 0.642822 0.642578 4.38444 0.642578 8.99996C0.642578 13.6155 4.3842 17.3571 8.99972 17.3571Z" stroke="#707070" stroke-width="1.28571" stroke-linecap="round" stroke-linejoin="round"/>
<path d="M11.1877 6.71439C11.1125 6.50146 10.9964 6.30785 10.8488 6.14296C10.5349 5.79225 10.0787 5.57153 9.57101 5.57153H8.24409C7.39897 5.57153 6.71387 6.25664 6.71387 7.10176C6.71387 7.82087 7.21459 8.44297 7.91709 8.59664L9.93735 9.03857C10.7243 9.21073 11.2853 9.90815 11.2853 10.7138C11.2853 11.6605 10.5178 12.4287 9.57101 12.4287H8.42815C7.68174 12.4287 7.04675 11.9516 6.81141 11.2858" stroke="#707070" stroke-width="1.28571" stroke-linecap="round" stroke-linejoin="round"/>
<path d="M9 5.57146V3.85718" stroke="#707070" stroke-width="1.28571" stroke-linecap="round" stroke-linejoin="round"/>
<path d="M9 14.1428V12.4285" stroke="#707070" stroke-width="1.28571" stroke-linecap="round" stroke-linejoin="round"/>
</svg>
