<svg width="20" height="16" viewBox="0 0 20 16" fill="none" xmlns="http://www.w3.org/2000/svg">
<path fill-rule="evenodd" clip-rule="evenodd" d="M1.12868 1.29531C0.25 2.17399 0.25 3.5882 0.25 6.41663V9.58329C0.25 12.4117 0.25 13.8259 1.12868 14.7046C2.00736 15.5833 3.42157 15.5833 6.25 15.5833H13.75C16.5784 15.5833 17.9926 15.5833 18.8713 14.7046C19.75 13.8259 19.75 12.4117 19.75 9.58329V6.41663C19.75 3.5882 19.75 2.17399 18.8713 1.29531C17.9926 0.416626 16.5784 0.416626 13.75 0.416626H6.25C3.42157 0.416626 2.00736 0.416626 1.12868 1.29531ZM4.0547 3.91791C3.59517 3.61156 2.9743 3.73573 2.66795 4.19526C2.3616 4.65479 2.48577 5.27566 2.9453 5.58201L8.8906 9.54554C9.5624 9.99341 10.4376 9.99341 11.1094 9.54554L17.0547 5.58201C17.5142 5.27566 17.6384 4.65479 17.3321 4.19526C17.0257 3.73573 16.4048 3.61156 15.9453 3.91791L10 7.88144L4.0547 3.91791Z" fill="#1B1C17"/>
</svg>
