<svg width="20" height="21" viewBox="0 0 20 21" fill="none" xmlns="http://www.w3.org/2000/svg">
<path d="M10.1376 6.96343C8.32768 6.96343 6.85061 8.4405 6.85061 10.2505C6.85061 12.0604 8.32768 13.5375 10.1376 13.5375C11.9476 13.5375 13.4247 12.0604 13.4247 10.2505C13.4247 8.4405 11.9476 6.96343 10.1376 6.96343ZM19.9963 10.2505C19.9963 8.88929 20.0086 7.54045 19.9322 6.18174C19.8557 4.60357 19.4957 3.20294 18.3417 2.0489C17.1852 0.892398 15.787 0.534844 14.2088 0.458401C12.8477 0.381959 11.4988 0.394288 10.1401 0.394288C8.77894 0.394288 7.4301 0.381959 6.07139 0.458401C4.49322 0.534844 3.09259 0.894864 1.93855 2.0489C0.782047 3.20541 0.424492 4.60357 0.34805 6.18174C0.271607 7.54291 0.283937 8.89176 0.283937 10.2505C0.283937 11.6092 0.271607 12.9605 0.34805 14.3192C0.424492 15.8974 0.784513 17.298 1.93855 18.452C3.09506 19.6085 4.49322 19.9661 6.07139 20.0425C7.43256 20.119 8.7814 20.1066 10.1401 20.1066C11.5013 20.1066 12.8501 20.119 14.2088 20.0425C15.787 19.9661 17.1876 19.6061 18.3417 18.452C19.4982 17.2955 19.8557 15.8974 19.9322 14.3192C20.0111 12.9605 19.9963 11.6116 19.9963 10.2505ZM10.1376 15.308C7.33886 15.308 5.0801 13.0493 5.0801 10.2505C5.0801 7.45168 7.33886 5.19292 10.1376 5.19292C12.9364 5.19292 15.1952 7.45168 15.1952 10.2505C15.1952 13.0493 12.9364 15.308 10.1376 15.308ZM15.4023 6.16694C14.7489 6.16694 14.2212 5.63924 14.2212 4.98578C14.2212 4.33232 14.7489 3.80462 15.4023 3.80462C16.0558 3.80462 16.5835 4.33232 16.5835 4.98578C16.5837 5.14095 16.5533 5.29463 16.494 5.43802C16.4347 5.58142 16.3477 5.7117 16.238 5.82142C16.1283 5.93114 15.998 6.01814 15.8546 6.07743C15.7112 6.13672 15.5575 6.16714 15.4023 6.16694Z" fill="black"/>
</svg>
