<svg width="22" height="19" viewBox="0 0 22 19" fill="none" xmlns="http://www.w3.org/2000/svg">
<path d="M5.0431 18.7279H0.518563V6.80647H5.0431V18.7279ZM2.77839 5.18028C1.3316 5.18028 0.158081 4.19978 0.158081 3.01601C0.158081 2.4474 0.434149 1.90208 0.925553 1.50002C1.41696 1.09795 2.08344 0.87207 2.77839 0.87207C3.47334 0.87207 4.13983 1.09795 4.63123 1.50002C5.12264 1.90208 5.39871 2.4474 5.39871 3.01601C5.39871 4.19978 4.22471 5.18028 2.77839 5.18028ZM21.977 18.7279H17.4622V12.9246C17.4622 11.5415 17.4281 9.76789 15.1098 9.76789C12.7574 9.76789 12.3969 11.2705 12.3969 12.825V18.7279H7.87726V6.80647H12.2167V8.43266H12.28C12.8841 7.496 14.3596 6.50754 16.561 6.50754C21.1401 6.50754 21.9818 8.97472 21.9818 12.1793V18.7279H21.977Z" fill="#1B1C17"/>
</svg>
