<svg width="16" height="18" viewBox="0 0 16 18" fill="none" xmlns="http://www.w3.org/2000/svg">
<path d="M8.59871 16.6983L8.24261 16.0382L8.59871 16.6983ZM7.4052 16.6983L7.04909 17.3584H7.0491L7.4052 16.6983ZM14.252 7.99951C14.252 10.1449 13.2042 11.9155 11.8919 13.2938C10.579 14.6728 9.05421 15.6004 8.24261 16.0382L8.95481 17.3584C9.83596 16.883 11.5128 15.8672 12.9783 14.3281C14.4444 12.7883 15.752 10.6661 15.752 7.99951H14.252ZM8.00195 1.74951C11.4537 1.74951 14.252 4.54773 14.252 7.99951H15.752C15.752 3.7193 12.2822 0.249512 8.00195 0.249512V1.74951ZM1.75195 7.99951C1.75195 4.54773 4.55017 1.74951 8.00195 1.74951V0.249512C3.72175 0.249512 0.251953 3.7193 0.251953 7.99951H1.75195ZM7.7613 16.0382C6.9497 15.6004 5.42495 14.6728 4.11196 13.2938C2.79969 11.9155 1.75195 10.1449 1.75195 7.99951H0.251953C0.251953 10.6661 1.55947 12.7883 3.02563 14.3281C4.49108 15.8672 6.16794 16.883 7.04909 17.3584L7.7613 16.0382ZM8.24261 16.0382C8.08882 16.1212 7.91508 16.1212 7.7613 16.0382L7.0491 17.3584C7.6474 17.6812 8.35651 17.6812 8.95481 17.3584L8.24261 16.0382ZM10.251 7.99963C10.251 9.24227 9.24362 10.2496 8.00098 10.2496V11.7496C10.072 11.7496 11.751 10.0707 11.751 7.99963H10.251ZM8.00098 5.74963C9.24362 5.74963 10.251 6.75699 10.251 7.99963H11.751C11.751 5.92857 10.072 4.24963 8.00098 4.24963V5.74963ZM5.75098 7.99963C5.75098 6.75699 6.75834 5.74963 8.00098 5.74963V4.24963C5.92991 4.24963 4.25098 5.92857 4.25098 7.99963H5.75098ZM8.00098 10.2496C6.75834 10.2496 5.75098 9.24227 5.75098 7.99963H4.25098C4.25098 10.0707 5.92991 11.7496 8.00098 11.7496V10.2496Z" fill="#707070"/>
</svg>
