<svg width="21" height="23" viewBox="0 0 21 23" fill="none" xmlns="http://www.w3.org/2000/svg">
<path d="M12.5694 5.97155C10.5833 5.97155 8.62575 6.85895 7.13125 8.60361V0H4.1738V14.4858C4.1738 19.188 7.83651 22.9999 12.3548 22.9999C16.873 22.9999 20.5357 19.188 20.5357 14.4858C20.5357 9.78357 17.0876 5.97155 12.5694 5.97155ZM12.3548 19.7206C9.57676 19.7206 7.32473 17.3768 7.32473 14.4857C7.32473 11.5946 9.57676 9.25083 12.3548 9.25083C15.1327 9.25083 17.3847 11.5946 17.3847 14.4857C17.3847 17.3769 15.1327 19.7206 12.3548 19.7206Z" fill="#262626"/>
<path d="M2.02302 18.7892C0.905705 18.7892 0 19.7318 0 20.8946C0 22.0573 0.905705 23 2.02302 23C3.14033 23 4.04603 22.0573 4.04603 20.8946C4.04603 19.7318 3.14033 18.7892 2.02302 18.7892Z" fill="#0000FF"/>
</svg>
