<svg width="22" height="23" viewBox="0 0 22 23" fill="none" xmlns="http://www.w3.org/2000/svg">
<path d="M16.6789 7.57296V4.83405C17.0367 4.6649 17.3398 4.39642 17.5526 4.05987C17.7655 3.72333 17.8795 3.33256 17.8813 2.93305V2.87015C17.8813 1.70531 16.9476 0.761023 15.7959 0.761023H15.7337C15.1806 0.761023 14.6501 0.983233 14.259 1.37877C13.8679 1.77431 13.6482 2.31077 13.6482 2.87015V2.93305C13.6501 3.33256 13.764 3.72333 13.9769 4.05987C14.1898 4.39642 14.4928 4.6649 14.8507 4.83405V7.57296C13.8221 7.73224 12.8534 8.16355 12.0427 8.82322L4.61544 2.97265C4.66842 2.77929 4.69607 2.58049 4.69914 2.38092C4.70005 1.91087 4.5631 1.45111 4.30561 1.05979C4.04813 0.668477 3.68168 0.36318 3.25261 0.182521C2.82355 0.0018621 2.35114 -0.0460419 1.89515 0.0448682C1.43916 0.135778 1.02007 0.361418 0.690891 0.693247C0.361715 1.02508 0.13724 1.44818 0.0458609 1.90905C-0.0455183 2.36993 0.000307402 2.84785 0.177533 3.28238C0.35476 3.71691 0.655425 4.08852 1.0415 4.35021C1.42758 4.61189 1.88173 4.7519 2.3465 4.75251C2.7531 4.75058 3.15209 4.64079 3.50362 4.43413L10.8172 10.19C10.1602 11.1938 9.81746 12.3745 9.83362 13.5782C9.84978 14.7819 10.2241 15.9528 10.9078 16.9382L8.68342 19.1887C8.50361 19.1305 8.31627 19.0996 8.12751 19.097C7.74601 19.0973 7.37316 19.212 7.05608 19.4266C6.739 19.6411 6.49192 19.9459 6.34607 20.3024C6.20021 20.659 6.16213 21.0512 6.23663 21.4296C6.31113 21.808 6.49488 22.1556 6.76464 22.4284C7.0344 22.7012 7.37807 22.8871 7.75223 22.9624C8.12638 23.0378 8.51423 22.9993 8.86675 22.8517C9.21927 22.7042 9.52064 22.4544 9.73278 22.1337C9.94492 21.813 10.0583 21.4359 10.0586 21.0501C10.0561 20.8592 10.0256 20.6697 9.96801 20.4878L12.1686 18.2615C12.8862 18.8202 13.7208 19.2054 14.6083 19.3876C15.4958 19.5697 16.4128 19.544 17.289 19.3124C18.1652 19.0807 18.9774 18.6493 19.6632 18.0512C20.3491 17.4531 20.8905 16.7042 21.246 15.8618C21.6015 15.0194 21.7616 14.1059 21.714 13.1912C21.6665 12.2765 21.4126 11.385 20.9717 10.585C20.5309 9.78488 19.9148 9.09747 19.1707 8.57539C18.4266 8.05331 17.5742 7.71041 16.6789 7.57296ZM15.7667 16.581C15.36 16.5923 14.9552 16.5211 14.5762 16.3715C14.1971 16.2219 13.8516 15.997 13.56 15.7101C13.2684 15.4231 13.0366 15.08 12.8783 14.701C12.72 14.3219 12.6385 13.9146 12.6385 13.5031C12.6385 13.0916 12.72 12.6844 12.8783 12.3053C13.0366 11.9262 13.2684 11.5831 13.56 11.2962C13.8516 11.0092 14.1971 10.7843 14.5762 10.6348C14.9552 10.4852 15.36 10.4139 15.7667 10.4252C16.5549 10.4532 17.3017 10.7894 17.8497 11.3631C18.3977 11.9368 18.7042 12.7032 18.7046 13.5008C18.705 14.2985 18.3993 15.0652 17.8518 15.6395C17.3044 16.2137 16.558 16.5507 15.7698 16.5794" fill="#FF5C35"/>
</svg>
