<svg width="30" height="30" viewBox="0 0 30 30" fill="none" xmlns="http://www.w3.org/2000/svg">
<mask id="mask0_1965_11842" style="mask-type:luminance" maskUnits="userSpaceOnUse" x="0" y="0" width="30" height="30">
<path fill-rule="evenodd" clip-rule="evenodd" d="M29.4634 12.7229H15.6855V18.3058H23.6162C22.8769 21.8526 19.7852 23.8888 15.6855 23.8888C10.8464 23.8888 6.94825 20.0792 6.94825 15.3501C6.94825 10.6211 10.8464 6.81151 15.6855 6.81151C17.7689 6.81151 19.6508 7.53401 21.1294 8.71628L25.4308 4.51265C22.8096 2.27946 19.4492 0.900146 15.6855 0.900146C7.48593 0.900146 0.899414 7.33696 0.899414 15.3501C0.899414 23.3633 7.48593 29.8001 15.6855 29.8001C23.0785 29.8001 29.7994 24.5456 29.7994 15.3501C29.7994 14.4963 29.665 13.5767 29.4634 12.7229Z" fill="white"/>
</mask>
<g mask="url(#mask0_1965_11842)">
<path d="M-0.444336 23.8883V6.81104L10.9812 15.3497L-0.444336 23.8883Z" fill="#FBBC05"/>
</g>
<mask id="mask1_1965_11842" style="mask-type:luminance" maskUnits="userSpaceOnUse" x="0" y="0" width="30" height="30">
<path fill-rule="evenodd" clip-rule="evenodd" d="M29.4634 12.7229H15.6855V18.3058H23.6162C22.8769 21.8526 19.7852 23.8888 15.6855 23.8888C10.8464 23.8888 6.94825 20.0792 6.94825 15.3501C6.94825 10.6211 10.8464 6.81151 15.6855 6.81151C17.7689 6.81151 19.6508 7.53401 21.1294 8.71628L25.4308 4.51265C22.8096 2.27946 19.4492 0.900146 15.6855 0.900146C7.48593 0.900146 0.899414 7.33696 0.899414 15.3501C0.899414 23.3633 7.48593 29.8001 15.6855 29.8001C23.0785 29.8001 29.7994 24.5456 29.7994 15.3501C29.7994 14.4963 29.665 13.5767 29.4634 12.7229Z" fill="white"/>
</mask>
<g mask="url(#mask1_1965_11842)">
<path d="M-0.444336 6.81167L10.9812 15.3503L15.6859 11.3437L31.8161 8.78213V-0.41333H-0.444336V6.81167Z" fill="#EA4335"/>
</g>
<mask id="mask2_1965_11842" style="mask-type:luminance" maskUnits="userSpaceOnUse" x="0" y="0" width="30" height="30">
<path fill-rule="evenodd" clip-rule="evenodd" d="M29.4634 12.7229H15.6855V18.3058H23.6162C22.8769 21.8526 19.7852 23.8888 15.6855 23.8888C10.8464 23.8888 6.94825 20.0792 6.94825 15.3501C6.94825 10.6211 10.8464 6.81151 15.6855 6.81151C17.7689 6.81151 19.6508 7.53401 21.1294 8.71628L25.4308 4.51265C22.8096 2.27946 19.4492 0.900146 15.6855 0.900146C7.48593 0.900146 0.899414 7.33696 0.899414 15.3501C0.899414 23.3633 7.48593 29.8001 15.6855 29.8001C23.0785 29.8001 29.7994 24.5456 29.7994 15.3501C29.7994 14.4963 29.665 13.5767 29.4634 12.7229Z" fill="white"/>
</mask>
<g mask="url(#mask2_1965_11842)">
<path d="M-0.444336 23.8889L19.7185 8.78213L25.028 9.43894L31.8161 -0.41333V31.114H-0.444336V23.8889Z" fill="#34A853"/>
</g>
<mask id="mask3_1965_11842" style="mask-type:luminance" maskUnits="userSpaceOnUse" x="0" y="0" width="30" height="30">
<path fill-rule="evenodd" clip-rule="evenodd" d="M29.4634 12.7229H15.6855V18.3058H23.6162C22.8769 21.8526 19.7852 23.8888 15.6855 23.8888C10.8464 23.8888 6.94825 20.0792 6.94825 15.3501C6.94825 10.6211 10.8464 6.81151 15.6855 6.81151C17.7689 6.81151 19.6508 7.53401 21.1294 8.71628L25.4308 4.51265C22.8096 2.27946 19.4492 0.900146 15.6855 0.900146C7.48593 0.900146 0.899414 7.33696 0.899414 15.3501C0.899414 23.3633 7.48593 29.8001 15.6855 29.8001C23.0785 29.8001 29.7994 24.5456 29.7994 15.3501C29.7994 14.4963 29.665 13.5767 29.4634 12.7229Z" fill="white"/>
</mask>
<g mask="url(#mask3_1965_11842)">
<path d="M31.8162 31.1133L10.9813 15.3497L8.29297 13.3792L31.8162 6.81104V31.1133Z" fill="#4285F4"/>
</g>
</svg>
