<svg width="23" height="19" viewBox="0 0 23 19" fill="none" xmlns="http://www.w3.org/2000/svg">
<path d="M20.0135 5.36479C20.0276 5.56268 20.0276 5.76061 20.0276 5.95851C20.0276 11.9945 15.4335 18.9493 7.03678 18.9493C4.4499 18.9493 2.04683 18.2001 0.0253906 16.8997C0.392936 16.9421 0.746297 16.9562 1.12798 16.9562C3.26246 16.9562 5.22738 16.2353 6.79646 15.0055C4.78917 14.963 3.10699 13.6484 2.52742 11.839C2.81016 11.8814 3.09285 11.9097 3.38974 11.9097C3.79966 11.9097 4.20963 11.8531 4.59127 11.7542C2.49918 11.3301 0.930048 9.49246 0.930048 7.27313V7.21661C1.53787 7.55587 2.24472 7.76791 2.99386 7.79615C1.76404 6.97625 0.958331 5.57682 0.958331 3.99359C0.958331 3.14546 1.18446 2.36799 1.58029 1.68946C3.8279 4.46009 7.20639 6.26944 10.9948 6.46738C10.9241 6.12812 10.8817 5.77476 10.8817 5.42135C10.8817 2.90514 12.9172 0.855469 15.4476 0.855469C16.7622 0.855469 17.9496 1.40677 18.7836 2.29732C19.8155 2.09943 20.805 1.71775 21.6815 1.19473C21.3422 2.25494 20.6213 3.1455 19.6742 3.7109C20.593 3.61199 21.4836 3.35749 22.3034 3.00413C21.6816 3.90879 20.904 4.7145 20.0135 5.36479Z" fill="black"/>
</svg>
