<svg width="19" height="19" viewBox="0 0 19 19" fill="none" xmlns="http://www.w3.org/2000/svg">
<g clip-path="url(#clip0_552_818)">
<path d="M8.78286 14.1275L5.90788 17.0025C5.38545 17.5249 4.69082 17.8125 3.95269 17.8125C2.42774 17.8125 1.18748 16.5722 1.18748 15.0473C1.18748 14.3086 1.47507 13.6145 1.99749 13.0921L7.15452 7.93508C8.20114 6.89022 10.0241 6.89139 11.0661 7.93625L11.9068 7.09779C10.4138 5.60125 7.80916 5.60125 6.31492 7.09548L1.15793 12.2525C0.41111 12.9993 0 13.9914 0 15.0473C0 17.2269 1.77313 19 3.95272 19C5.00861 19 6.00069 18.5889 6.74751 17.8421L10.3882 14.2014C10.222 14.2174 10.0594 14.25 9.89022 14.25C9.50993 14.25 9.13984 14.2062 8.78286 14.1275Z" fill="#35364F" fill-opacity="0.7"/>
<path d="M15.0463 0C13.9905 0 12.9984 0.41111 12.2516 1.15793L8.61083 4.79863C8.77703 4.7826 8.93968 4.74998 9.10885 4.74998C9.48748 4.74998 9.85192 4.80311 10.2075 4.88116L13.0912 1.99749C13.6136 1.47507 14.3076 1.18748 15.0463 1.18748C16.5713 1.18748 17.8116 2.42774 17.8116 3.95269C17.8116 4.69141 17.524 5.38545 17.0015 5.90788L11.8445 11.065C10.7973 12.1104 8.9743 12.1087 7.93061 11.0621L7.08984 11.9005C7.83667 12.6497 8.83109 13.0625 9.88929 13.0625C10.9452 13.0625 11.9373 12.6514 12.6841 11.9046L17.8411 6.74758C18.5879 6.00076 18.999 5.00865 18.999 3.95279C18.9991 1.77313 17.2259 0 15.0463 0V0Z" fill="#35364F" fill-opacity="0.7"/>
</g>
<defs>
<clipPath id="clip0_552_818">
<rect width="19" height="19" fill="white"/>
</clipPath>
</defs>
</svg>
