<svg width="20" height="18" viewBox="0 0 20 18" fill="none" xmlns="http://www.w3.org/2000/svg">
<path d="M8.71387 17.0357H11.2853" stroke="white" stroke-width="1.5" stroke-linecap="round" stroke-linejoin="round"/>
<path d="M15.143 7.39286C15.143 6.02889 14.6012 4.72078 13.6367 3.75631C12.6722 2.79184 11.3641 2.25 10.0001 2.25C8.63617 2.25 7.32806 2.79184 6.36359 3.75631C5.39912 4.72078 4.85728 6.02889 4.85728 7.39286V11.8929C4.85728 12.4043 4.65409 12.8949 4.29242 13.2566C3.93074 13.6182 3.4402 13.8214 2.92871 13.8214H17.0716C16.5601 13.8214 16.0695 13.6182 15.7079 13.2566C15.3462 12.8949 15.143 12.4043 15.143 11.8929V7.39286Z" stroke="white" stroke-width="1.5" stroke-linecap="round" stroke-linejoin="round"/>
<path d="M1.64258 7.22572C1.64327 6.00191 1.93512 4.79581 2.49402 3.70707C3.05293 2.61833 3.86284 1.67819 4.85686 0.964294" stroke="white" stroke-width="1.5" stroke-linecap="round" stroke-linejoin="round"/>
<path d="M18.3569 7.22572C18.3562 6.00191 18.0643 4.79581 17.5054 3.70707C16.9465 2.61833 16.1366 1.67819 15.1426 0.964294" stroke="white" stroke-width="1.5" stroke-linecap="round" stroke-linejoin="round"/>
</svg>
