<svg width="23" height="23" viewBox="0 0 23 23" fill="none" xmlns="http://www.w3.org/2000/svg">
<path d="M17.3071 9.23079C19.4313 9.23079 21.1532 7.50881 21.1532 5.38464C21.1532 3.26046 19.4313 1.53848 17.3071 1.53848C15.1829 1.53848 13.4609 3.26046 13.4609 5.38464C13.4609 7.50881 15.1829 9.23079 17.3071 9.23079Z" stroke="#1B1C17" stroke-width="1.5" stroke-linecap="round" stroke-linejoin="round"/>
<path d="M16.0489 13.0769V15.4363C16.0489 16.038 16.2879 16.6151 16.7134 17.0406C17.1389 17.4661 17.8585 17.7051 18.4602 17.7051H1.53711C2.13884 17.7051 2.85847 17.4661 3.28395 17.0406C3.70944 16.6151 3.94847 16.038 3.94847 15.4363L3.94846 9.89637C3.94846 8.29176 4.58589 6.75287 5.72052 5.61824C6.85515 4.48361 8.39404 3.84618 9.99865 3.84618" stroke="#1B1C17" stroke-width="1.5" stroke-linecap="round" stroke-linejoin="round"/>
<path d="M8.46094 21.5385H11.5379" stroke="#1B1C17" stroke-width="1.5" stroke-linecap="round" stroke-linejoin="round"/>
</svg>
