<svg width="25" height="25" viewBox="0 0 25 25" fill="none" xmlns="http://www.w3.org/2000/svg">
<path d="M20.1305 6.01846C20.8327 7.06939 20.8327 8.53238 20.8327 11.4583C20.8327 14.3843 20.8327 15.8473 20.1305 16.8982C19.8265 17.3532 19.4358 17.7438 18.9809 18.0478C18.0628 18.6612 16.8303 18.7388 14.5827 18.7486V18.75L13.431 21.0533C13.0472 21.821 11.9515 21.821 11.5677 21.0533L10.416 18.75V18.7486C8.16841 18.7388 6.93588 18.6612 6.01781 18.0478C5.56285 17.7438 5.17222 17.3532 4.86823 16.8982C4.16602 15.8473 4.16602 14.3843 4.16602 11.4583C4.16602 8.53238 4.16602 7.06939 4.86823 6.01846C5.17222 5.5635 5.56285 5.17288 6.01781 4.86888C7.06874 4.16667 8.53172 4.16667 11.4577 4.16667H13.541C16.467 4.16667 17.93 4.16667 18.9809 4.86888C19.4358 5.17288 19.8265 5.5635 20.1305 6.01846Z" stroke="#1B1C17" stroke-width="1.5" stroke-linecap="round" stroke-linejoin="round"/>
<path d="M9.375 9.375L15.625 9.375" stroke="#1B1C17" stroke-width="1.5" stroke-linecap="round" stroke-linejoin="round"/>
<path d="M9.375 13.5417H12.5" stroke="#1B1C17" stroke-width="1.5" stroke-linecap="round" stroke-linejoin="round"/>
</svg>
