<svg width="14" height="16" viewBox="0 0 14 16" fill="none" xmlns="http://www.w3.org/2000/svg">
<path d="M12.25 2H9.5V1.5C9.5 0.671562 8.82844 0 8 0H6C5.17156 0 4.5 0.671562 4.5 1.5V2H1.75C1.05966 2 0.5 2.55966 0.5 3.25V4.25C0.5 4.52616 0.723844 4.75 1 4.75H13C13.2762 4.75 13.5 4.52616 13.5 4.25V3.25C13.5 2.55966 12.9403 2 12.25 2ZM5.5 1.5C5.5 1.22438 5.72437 1 6 1H8C8.27563 1 8.5 1.22438 8.5 1.5V2H5.5V1.5Z" fill="#B6B9BF"/>
<path d="M1.44921 5.75C1.35999 5.75 1.2889 5.82456 1.29315 5.91369L1.70565 14.5712C1.74377 15.3725 2.4019 16 3.20377 16H10.7969C11.5988 16 12.2569 15.3725 12.295 14.5712L12.7075 5.91369C12.7118 5.82456 12.6407 5.75 12.5515 5.75H1.44921ZM9.00034 7C9.00034 6.72375 9.22409 6.5 9.50034 6.5C9.77659 6.5 10.0003 6.72375 10.0003 7V13.5C10.0003 13.7762 9.77659 14 9.50034 14C9.22409 14 9.00034 13.7762 9.00034 13.5V7ZM6.50034 7C6.50034 6.72375 6.72409 6.5 7.00034 6.5C7.27659 6.5 7.50034 6.72375 7.50034 7V13.5C7.50034 13.7762 7.27659 14 7.00034 14C6.72409 14 6.50034 13.7762 6.50034 13.5V7ZM4.00034 7C4.00034 6.72375 4.22409 6.5 4.50034 6.5C4.77659 6.5 5.00034 6.72375 5.00034 7V13.5C5.00034 13.7762 4.77659 14 4.50034 14C4.22409 14 4.00034 13.7762 4.00034 13.5V7Z" fill="#B6B9BF"/>
</svg>
