<svg width="16" height="14" viewBox="0 0 16 14" fill="none" xmlns="http://www.w3.org/2000/svg">
<path d="M12.3077 12.25C12.3077 12.092 12.2468 11.9553 12.125 11.8398C12.0032 11.7244 11.859 11.6667 11.6923 11.6667C11.5256 11.6667 11.3814 11.7244 11.2596 11.8398C11.1378 11.9553 11.0769 12.092 11.0769 12.25C11.0769 12.408 11.1378 12.5447 11.2596 12.6602C11.3814 12.7756 11.5256 12.8333 11.6923 12.8333C11.859 12.8333 12.0032 12.7756 12.125 12.6602C12.2468 12.5447 12.3077 12.408 12.3077 12.25ZM14.7692 12.25C14.7692 12.092 14.7083 11.9553 14.5865 11.8398C14.4647 11.7244 14.3205 11.6667 14.1538 11.6667C13.9872 11.6667 13.8429 11.7244 13.7212 11.8398C13.5994 11.9553 13.5385 12.092 13.5385 12.25C13.5385 12.408 13.5994 12.5447 13.7212 12.6602C13.8429 12.7756 13.9872 12.8333 14.1538 12.8333C14.3205 12.8333 14.4647 12.7756 14.5865 12.6602C14.7083 12.5447 14.7692 12.408 14.7692 12.25ZM16 10.2083V13.125C16 13.3681 15.9103 13.5747 15.7308 13.7448C15.5513 13.9149 15.3333 14 15.0769 14H0.923077C0.666667 14 0.448718 13.9149 0.269231 13.7448C0.0897436 13.5747 0 13.3681 0 13.125V10.2083C0 9.96528 0.0897436 9.75868 0.269231 9.58854C0.448718 9.4184 0.666667 9.33333 0.923077 9.33333H5.39423L6.69231 10.5729C7.0641 10.9132 7.5 11.0833 8 11.0833C8.5 11.0833 8.9359 10.9132 9.30769 10.5729L10.6154 9.33333H15.0769C15.3333 9.33333 15.5513 9.4184 15.7308 9.58854C15.9103 9.75868 16 9.96528 16 10.2083ZM12.875 5.02214C12.984 5.27127 12.9391 5.48394 12.7404 5.66016L8.43269 9.74349C8.31731 9.85894 8.17308 9.91667 8 9.91667C7.82692 9.91667 7.68269 9.85894 7.56731 9.74349L3.25962 5.66016C3.0609 5.48394 3.01603 5.27127 3.125 5.02214C3.23397 4.78516 3.42308 4.66667 3.69231 4.66667H6.15385V0.583333C6.15385 0.425347 6.21474 0.288628 6.33654 0.173177C6.45833 0.0577257 6.60256 0 6.76923 0H9.23077C9.39744 0 9.54167 0.0577257 9.66346 0.173177C9.78526 0.288628 9.84615 0.425347 9.84615 0.583333V4.66667H12.3077C12.5769 4.66667 12.766 4.78516 12.875 5.02214Z" fill="black"/>
</svg>
