<svg width="16" height="16" viewBox="0 0 16 16" fill="none" xmlns="http://www.w3.org/2000/svg">
<g clip-path="url(#clip0_725_10142)">
<path d="M12.6666 8.03076C12.298 8.03076 12 8.32947 12 8.69739V14.0308C12 14.3981 11.7013 14.6974 11.3334 14.6974H2C1.63196 14.6974 1.33337 14.3981 1.33337 14.0308V4.69739C1.33337 4.33008 1.63196 4.03076 2 4.03076H7.33337C7.70203 4.03076 8 3.73206 8 3.36414C8 2.99609 7.70203 2.69739 7.33337 2.69739H2C0.897339 2.69739 0 3.59473 0 4.69739V14.0308C0 15.1334 0.897339 16.0308 2 16.0308H11.3334C12.436 16.0308 13.3334 15.1334 13.3334 14.0308V8.69739C13.3334 8.32873 13.0353 8.03076 12.6666 8.03076Z" fill="white"/>
<path d="M6.25075 7.42346C6.20412 7.47009 6.17275 7.52942 6.15944 7.59338L5.68813 9.95081C5.66616 10.0601 5.70082 10.1727 5.77944 10.2521C5.84279 10.3154 5.92812 10.3494 6.01552 10.3494C6.03676 10.3494 6.05886 10.3474 6.08083 10.3428L8.43752 9.87146C8.50283 9.85803 8.56215 9.82678 8.60817 9.78003L13.8828 4.50537L11.5261 2.1488L6.25075 7.42346Z" fill="white"/>
<path d="M15.5117 0.518829C14.8618 -0.131195 13.8044 -0.131195 13.155 0.518829L12.2324 1.44144L14.5891 3.79813L15.5117 2.8754C15.8264 2.56143 15.9998 2.14273 15.9998 1.69742C15.9998 1.25211 15.8264 0.833405 15.5117 0.518829Z" fill="white"/>
</g>
<defs>
<clipPath id="clip0_725_10142">
<rect width="16" height="16" fill="white"/>
</clipPath>
</defs>
</svg>
