<svg width="19" height="19" viewBox="0 0 19 19" fill="none" xmlns="http://www.w3.org/2000/svg">
<path d="M9.5 0C4.26178 0 0 4.26178 0 9.5C0 14.7382 4.26178 19 9.5 19C14.7382 19 19 14.7382 19 9.5C19 4.26178 14.7382 0 9.5 0ZM9.5 18.1739C4.71696 18.1739 0.826087 14.283 0.826087 9.5C0.826087 4.71696 4.71696 0.826087 9.5 0.826087C14.283 0.826087 18.1739 4.71696 18.1739 9.5C18.1739 14.283 14.283 18.1739 9.5 18.1739Z" fill="#35364F" fill-opacity="0.7"/>
<path d="M7.43529 7.84777C7.43529 7.1646 6.87934 6.60864 6.19616 6.60864C5.51299 6.60864 4.95703 7.1646 4.95703 7.84777C4.95703 8.53095 5.51299 9.0869 6.19616 9.0869C6.87934 9.0869 7.43529 8.53095 7.43529 7.84777ZM5.78312 7.84777C5.78312 7.62019 5.96857 7.43473 6.19616 7.43473C6.42375 7.43473 6.60921 7.62019 6.60921 7.84777C6.60921 8.07536 6.42375 8.26082 6.19616 8.26082C5.96857 8.26082 5.78312 8.07536 5.78312 7.84777Z" fill="#35364F" fill-opacity="0.7"/>
<path d="M12.8036 6.60864C12.1204 6.60864 11.5645 7.1646 11.5645 7.84777C11.5645 8.53095 12.1204 9.0869 12.8036 9.0869C13.4867 9.0869 14.0427 8.53095 14.0427 7.84777C14.0427 7.1646 13.4867 6.60864 12.8036 6.60864ZM12.8036 8.26082C12.576 8.26082 12.3905 8.07536 12.3905 7.84777C12.3905 7.62019 12.576 7.43473 12.8036 7.43473C13.0312 7.43473 13.2166 7.62019 13.2166 7.84777C13.2166 8.07536 13.0312 8.26082 12.8036 8.26082Z" fill="#35364F" fill-opacity="0.7"/>
<path d="M13.4925 11.6705C13.3223 11.5181 13.0608 11.533 12.9093 11.7028C12.0477 12.6656 10.8052 13.2174 9.49958 13.2174C8.19437 13.2174 6.95152 12.6656 6.08991 11.7028C5.93749 11.533 5.67686 11.5181 5.50669 11.6705C5.33651 11.8225 5.32247 12.0836 5.47447 12.2538C6.49262 13.3913 7.95976 14.0435 9.49958 14.0435C11.0398 14.0435 12.507 13.3909 13.5247 12.2538C13.6767 12.0836 13.6622 11.8225 13.4925 11.6705Z" fill="#35364F" fill-opacity="0.7"/>
</svg>
