<svg width="20" height="20" viewBox="0 0 20 20" fill="none" xmlns="http://www.w3.org/2000/svg">
<path fill-rule="evenodd" clip-rule="evenodd" d="M13.1741 5.95867C13.1666 6.5214 13.6247 6.97951 14.1874 6.97198L18.9991 6.90752C19.4413 6.9016 19.6587 6.36672 19.346 6.05401L14.0921 0.800108C13.7794 0.487404 13.2445 0.704774 13.2386 1.14697L13.1741 5.95867ZM10.6311 0.738476C11.1834 0.738476 11.6311 1.18619 11.6311 1.73848V5.87184C11.6311 7.25251 12.7504 8.37178 14.1311 8.37178H18.315C18.8673 8.37178 19.315 8.81949 19.315 9.37178V17.0886C19.315 18.4693 18.1957 19.5886 16.815 19.5886H2.96484C1.58414 19.5886 0.464844 18.4693 0.464844 17.0886V3.23848C0.464844 1.85774 1.58414 0.738476 2.96484 0.738476H10.6311Z" fill="#CDEF84"/>
</svg>
