<svg width="26" height="18" viewBox="0 0 26 18" fill="none" xmlns="http://www.w3.org/2000/svg">
<path d="M21.9375 0H13V1.91506L11.1256 2.84375H13V5.6875H11.1256L13 6.66047V8.53125H12.922L7.71875 5.95197V8.53125H5.28125V5.95197L0.0950625 8.53125H0V13.4062C0 15.8742 1.37028 17.875 4.0625 17.875H21.9375C24.6297 17.875 26 15.8742 26 13.4062V4.46875C26 2.00078 24.6297 0 21.9375 0Z" fill="#2B3990"/>
<path d="M12.9997 0.952243V0.941681L9.27441 2.84374L12.9997 0.952243Z" fill="#4189DD"/>
<path d="M0 5.6875V6.6755L1.90369 5.6875H0ZM0.492375 2.145C0.384317 2.37022 0.294913 2.60392 0.225063 2.84375H1.90369L0.492375 2.145ZM13 0.00406259V0H7.71875V2.72147L13 0.00406259ZM5.28125 2.72147V0H4.0625C2.99813 0 2.14378 0.316062 1.49581 0.847031L5.28125 2.72147Z" fill="#2B3990"/>
<path d="M13 3.25V2.84375H11.1256L13 1.91506V0.95225L9.27469 2.84375H8.0405L13 0.311594V0.00406259L7.71875 2.72147V0H7.3125V3.25H13ZM7.3125 8.53125H7.71875V5.95197L12.922 8.53125H13V7.605L9.27469 5.6875H10.5093L13 6.97531V6.66047L11.1256 5.6875H13V5.28125H7.3125V8.53125ZM5.28125 5.95197V8.53125H5.6875V5.28125H0V5.6875H1.90369L0 6.6755V7.60906L3.75456 5.6875H4.98956L0 8.23875V8.53125H0.0950625L5.28125 5.95197ZM1.49581 0.849063C1.28212 1.02416 1.09159 1.22281 0.923406 1.44178L3.75456 2.84578H2.51997L0.612625 1.91059C0.570198 1.98819 0.530097 2.06704 0.492375 2.14703L1.90369 2.84578H0.225063C0.186063 2.97822 0.152344 3.1135 0.123906 3.25203H5.6875V0.0020313H5.28125V2.7235L1.49581 0.849063Z" fill="white"/>
<path d="M5.6875 8.53125H7.3125V5.28125H13V3.38528L7.3125 3.65625V0H5.6875V3.65625L0.092625 3.41616C0.0312554 3.76367 0.000263334 4.11586 0 4.46875L0 5.28125H5.6875V8.53125Z" fill="#FF0000"/>
<path d="M7.31265 3.65626L13.0001 3.38529V3.25001H7.31265V3.65626ZM0.0927734 3.41616L5.68765 3.65626V3.25001H0.124055C0.112273 3.30485 0.102523 3.3601 0.0927734 3.41616ZM3.75471 2.84376L0.920711 1.44301C0.807118 1.59076 0.704081 1.74633 0.612367 1.90857L2.52012 2.84376H3.75471ZM0.923148 1.43976L0.920711 1.44301L3.75471 2.84376L0.923148 1.43976ZM9.27484 2.84376L13.0001 0.941693V0.3116L8.04065 2.84376H9.27484ZM9.27484 5.68751L13.0001 7.58957V6.97532L10.5094 5.68751H9.27484Z" fill="#FF0000"/>
<path d="M13 7.605V7.58956L9.27469 5.6875L13 7.605ZM3.75456 5.6875L0 7.61841V8.23875L4.98956 5.6875H3.75456Z" fill="#FF0000"/>
<path d="M0 7.60906V7.61841L3.75456 5.6875L0 7.60906Z" fill="#FF0000"/>
<path d="M5.98977 12.3338L6.50042 10.7742L6.9997 12.3338L8.51664 11.7488L7.62005 13.1056L9.03136 13.9384L7.39823 14.0806L7.62045 15.7036L6.50083 14.5194L5.3743 15.7036L5.59205 14.0806L3.9707 13.9466L5.36983 13.1097L4.46836 11.7488L5.98977 12.3338ZM19.0767 12.881L19.277 12.2647L19.4752 12.881L20.0732 12.6506L19.7206 13.1869L20.278 13.5159L19.6345 13.5728L19.7206 14.2127L19.277 13.7451L18.8342 14.2127L18.9191 13.5728L18.2784 13.5159L18.8301 13.1869L18.4767 12.6506L19.0767 12.881ZM15.6398 7.45754L15.8413 6.84166L16.0388 7.45754L16.638 7.22679L16.2829 7.76344L16.8411 8.09251L16.196 8.14938L16.2829 8.78963L15.8413 8.32163L15.3961 8.78963L15.4826 8.14938L14.8415 8.09413L15.3949 7.76344L15.0398 7.22679L15.6398 7.45754ZM22.1329 6.54876L22.3336 5.93247L22.531 6.54876L23.1303 6.3176L22.7748 6.85426L23.3354 7.18332L22.6883 7.23897L22.7748 7.88004L22.3336 7.41407L21.8884 7.88004L21.9745 7.23897L21.3326 7.18494L21.8867 6.85588L21.5305 6.3176L22.1329 6.54876ZM20.7517 9.18288L20.8492 8.87535L20.9491 9.18288L21.2473 9.06751L21.0718 9.33563L21.3489 9.50016L21.0283 9.52779L21.0718 9.84751L20.8492 9.61472L20.6286 9.84751L20.6716 9.52779L20.3495 9.50097L20.6278 9.33644L20.451 9.06751L20.7517 9.18288ZM19.0767 3.71719L19.277 3.10132L19.4752 3.71719L20.0732 3.48644L19.7206 4.0231L20.278 4.35216L19.6345 4.40782L19.7206 5.04929L19.277 4.58129L18.8342 5.04929L18.9191 4.40782L18.2784 4.35379L18.8301 4.02472L18.4767 3.48644L19.0767 3.71719Z" fill="white"/>
</svg>
