<svg width="27" height="20" viewBox="0 0 27 20" fill="none" xmlns="http://www.w3.org/2000/svg">
<path d="M27 16.5C27 17.2957 26.6839 18.0587 26.1213 18.6213C25.5587 19.1839 24.7956 19.5 24 19.5H3C2.20435 19.5 1.44129 19.1839 0.87868 18.6213C0.316071 18.0587 0 17.2957 0 16.5V3C0 2.20435 0.316071 1.44129 0.87868 0.87868C1.44129 0.31607 2.20435 0 3 0H24C24.7956 0 25.5587 0.31607 26.1213 0.87868C26.6839 1.44129 27 2.20435 27 3V16.5Z" fill="#006A4D"/>
<path d="M12 14.625C14.8995 14.625 17.25 12.2745 17.25 9.375C17.25 6.4755 14.8995 4.125 12 4.125C9.1005 4.125 6.75 6.4755 6.75 9.375C6.75 12.2745 9.1005 14.625 12 14.625Z" fill="#F42A41"/>
</svg>
