<svg width="26" height="26" viewBox="0 0 26 26" fill="none" xmlns="http://www.w3.org/2000/svg">
<mask id="mask0_442_3321" style="mask-type:luminance" maskUnits="userSpaceOnUse" x="0" y="0" width="26" height="27">
<path fill-rule="evenodd" clip-rule="evenodd" d="M25.7035 10.932H13.5465V15.8581H20.5442C19.8919 18.9877 17.164 20.7843 13.5465 20.7843C9.27674 20.7843 5.83721 17.4229 5.83721 13.2502C5.83721 9.07746 9.27674 5.71609 13.5465 5.71609C15.3849 5.71609 17.0453 6.35359 18.35 7.39677L22.1453 3.68768C19.8326 1.71723 16.8674 0.500183 13.5465 0.500183C6.31163 0.500183 0.5 6.17973 0.5 13.2502C0.5 20.3206 6.31163 26.0002 13.5465 26.0002C20.0698 26.0002 26 21.3638 26 13.2502C26 12.4968 25.8814 11.6854 25.7035 10.932Z" fill="white"/>
</mask>
<g mask="url(#mask0_442_3321)">
<path d="M-0.685547 20.7839V5.71576L9.39585 13.2499L-0.685547 20.7839Z" fill="#FBBC05"/>
</g>
<mask id="mask1_442_3321" style="mask-type:luminance" maskUnits="userSpaceOnUse" x="0" y="0" width="26" height="27">
<path fill-rule="evenodd" clip-rule="evenodd" d="M25.7035 10.932H13.5465V15.8581H20.5442C19.8919 18.9877 17.164 20.7843 13.5465 20.7843C9.27674 20.7843 5.83721 17.4229 5.83721 13.2502C5.83721 9.07746 9.27674 5.71609 13.5465 5.71609C15.3849 5.71609 17.0453 6.35359 18.35 7.39677L22.1453 3.68768C19.8326 1.71723 16.8674 0.500183 13.5465 0.500183C6.31163 0.500183 0.5 6.17973 0.5 13.2502C0.5 20.3206 6.31163 26.0002 13.5465 26.0002C20.0698 26.0002 26 21.3638 26 13.2502C26 12.4968 25.8814 11.6854 25.7035 10.932Z" fill="white"/>
</mask>
<g mask="url(#mask1_442_3321)">
<path d="M-0.685547 5.71613L9.39585 13.2502L13.547 9.71499L27.7796 7.45476V-0.658875H-0.685547V5.71613Z" fill="#EA4335"/>
</g>
<mask id="mask2_442_3321" style="mask-type:luminance" maskUnits="userSpaceOnUse" x="0" y="0" width="26" height="27">
<path fill-rule="evenodd" clip-rule="evenodd" d="M25.7035 10.932H13.5465V15.8581H20.5442C19.8919 18.9877 17.164 20.7843 13.5465 20.7843C9.27674 20.7843 5.83721 17.4229 5.83721 13.2502C5.83721 9.07746 9.27674 5.71609 13.5465 5.71609C15.3849 5.71609 17.0453 6.35359 18.35 7.39677L22.1453 3.68768C19.8326 1.71723 16.8674 0.500183 13.5465 0.500183C6.31163 0.500183 0.5 6.17973 0.5 13.2502C0.5 20.3206 6.31163 26.0002 13.5465 26.0002C20.0698 26.0002 26 21.3638 26 13.2502C26 12.4968 25.8814 11.6854 25.7035 10.932Z" fill="white"/>
</mask>
<g mask="url(#mask2_442_3321)">
<path d="M-0.685547 20.7843L17.1051 7.45476L21.79 8.03431L27.7796 -0.658875V27.1593H-0.685547V20.7843Z" fill="#34A853"/>
</g>
<mask id="mask3_442_3321" style="mask-type:luminance" maskUnits="userSpaceOnUse" x="0" y="0" width="26" height="27">
<path fill-rule="evenodd" clip-rule="evenodd" d="M25.7035 10.932H13.5465V15.8581H20.5442C19.8919 18.9877 17.164 20.7843 13.5465 20.7843C9.27674 20.7843 5.83721 17.4229 5.83721 13.2502C5.83721 9.07746 9.27674 5.71609 13.5465 5.71609C15.3849 5.71609 17.0453 6.35359 18.35 7.39677L22.1453 3.68768C19.8326 1.71723 16.8674 0.500183 13.5465 0.500183C6.31163 0.500183 0.5 6.17973 0.5 13.2502C0.5 20.3206 6.31163 26.0002 13.5465 26.0002C20.0698 26.0002 26 21.3638 26 13.2502C26 12.4968 25.8814 11.6854 25.7035 10.932Z" fill="white"/>
</mask>
<g mask="url(#mask3_442_3321)">
<path d="M27.7792 27.1589L9.39553 13.2499L7.02344 11.5112L27.7792 5.71576V27.1589Z" fill="#4285F4"/>
</g>
</svg>
