<svg width="30" height="30" viewBox="0 0 30 30" fill="none" xmlns="http://www.w3.org/2000/svg">
<g clip-path="url(#clip0_623_3308)">
<path d="M23.2285 15.7233H26.7439V24.1406H23.2285V15.7233Z" fill="#3CA2F7"/>
<path d="M16.5703 15.7233H20.0859V24.1406H16.5703V15.7233Z" fill="#3CA2F7"/>
<path d="M9.91406 15.7233H13.4297V24.1406H9.91406V15.7233Z" fill="#3CA2F7"/>
<path d="M3.25586 15.7233H6.77125V24.1406H3.25586V15.7233Z" fill="#3CA2F7"/>
<path d="M27.9149 13.0865V12.2076H2.08398V13.0865C2.08398 13.572 2.47743 13.9655 2.96289 13.9655H27.036C27.5212 13.9655 27.9149 13.572 27.9149 13.0865Z" fill="#3CA2F7"/>
<path d="M29.1197 25.8984H0.878906C0.393448 25.8984 0 26.2919 0 26.7773V29.1211C0 29.6065 0.393448 30 0.878906 30H29.1197C29.6052 30 29.9986 29.6065 29.9986 29.1211V26.7773C29.9986 26.2919 29.6052 25.8984 29.1197 25.8984Z" fill="#3CA2F7"/>
<path d="M0.878827 10.4498H29.121C29.5142 10.4498 29.8596 10.1887 29.9667 9.81033C30.0736 9.43199 29.9166 9.02847 29.5817 8.82247L15.4607 0.130463C15.1782 -0.0434875 14.8218 -0.0434875 14.5392 0.130463L0.418088 8.82247C0.0832345 9.0287 -0.0737783 9.43199 0.0333382 9.81033C0.140455 10.1887 0.485837 10.4498 0.878827 10.4498ZM14.4025 5.16952H15.5975C16.083 5.16952 16.4764 5.56297 16.4764 6.04843C16.4764 6.53389 16.083 6.92733 15.5975 6.92733H14.4025C13.9171 6.92733 13.5236 6.53389 13.5236 6.04843C13.5236 5.56297 13.9171 5.16952 14.4025 5.16952Z" fill="#3CA2F7"/>
</g>
<defs>
<clipPath id="clip0_623_3308">
<rect width="30" height="30" fill="white"/>
</clipPath>
</defs>
</svg>
