<svg width="24" height="25" viewBox="0 0 24 25" fill="none" xmlns="http://www.w3.org/2000/svg">
<path d="M17.9552 8.36175V5.47628C18.3322 5.29807 18.6514 5.01522 18.8757 4.66067C19.0999 4.30612 19.22 3.89443 19.2219 3.47354V3.40728C19.2219 2.18011 18.2383 1.18529 17.0249 1.18529H16.9594C16.3767 1.18529 15.8179 1.41939 15.4059 1.8361C14.9938 2.2528 14.7624 2.81797 14.7624 3.40728V3.47354C14.7643 3.89443 14.8844 4.30612 15.1086 4.66067C15.3329 5.01522 15.6521 5.29807 16.0291 5.47628V8.36175C14.9455 8.52955 13.925 8.98394 13.0709 9.67891L5.24621 3.51527C5.30203 3.31156 5.33115 3.10212 5.33439 2.89187C5.33534 2.39667 5.19107 1.91231 4.9198 1.50005C4.64854 1.08779 4.26248 0.766159 3.81046 0.575833C3.35843 0.385507 2.86074 0.335039 2.38035 0.430814C1.89996 0.526589 1.45844 0.764303 1.11165 1.11389C0.76486 1.46347 0.528373 1.90922 0.432104 2.39476C0.335835 2.88029 0.384113 3.38379 0.570823 3.84157C0.757532 4.29935 1.07429 4.69085 1.48103 4.96654C1.88776 5.24223 2.36621 5.38973 2.85585 5.39038C3.28421 5.38833 3.70455 5.27268 4.0749 5.05495L11.7799 11.1188C11.0877 12.1763 10.7266 13.4202 10.7436 14.6884C10.7606 15.9565 11.155 17.19 11.8753 18.2282L9.53187 20.599C9.34244 20.5378 9.14508 20.5052 8.94621 20.5025C8.5443 20.5028 8.1515 20.6236 7.81745 20.8497C7.4834 21.0757 7.2231 21.3968 7.06944 21.7724C6.91579 22.148 6.87566 22.5612 6.95415 22.9599C7.03264 23.3585 7.22622 23.7247 7.51042 24.0122C7.79461 24.2996 8.15667 24.4954 8.55085 24.5747C8.94503 24.6541 9.35363 24.6135 9.72501 24.4581C10.0964 24.3027 10.4139 24.0395 10.6374 23.7016C10.8609 23.3638 10.9803 22.9665 10.9806 22.56C10.978 22.3589 10.9459 22.1593 10.8852 21.9677L13.2036 19.6222C13.9596 20.2108 14.8388 20.6167 15.7738 20.8086C16.7088 21.0005 17.6749 20.9734 18.598 20.7293C19.521 20.4853 20.3767 20.0309 21.0992 19.4007C21.8218 18.7706 22.3922 17.9816 22.7667 17.0941C23.1412 16.2066 23.3099 15.2442 23.2598 14.2806C23.2097 13.317 22.9422 12.3778 22.4778 11.5349C22.0133 10.692 21.3643 9.96784 20.5804 9.41782C19.7965 8.8678 18.8985 8.50655 17.9552 8.36175ZM16.9942 17.8518C16.5657 17.8637 16.1392 17.7887 15.7399 17.6311C15.3406 17.4735 14.9766 17.2366 14.6694 16.9343C14.3622 16.632 14.118 16.2705 13.9512 15.8712C13.7845 15.4718 13.6986 15.0427 13.6986 14.6092C13.6986 14.1758 13.7845 13.7467 13.9512 13.3473C14.118 12.948 14.3622 12.5865 14.6694 12.2842C14.9766 11.9819 15.3406 11.745 15.7399 11.5874C16.1392 11.4298 16.5657 11.3547 16.9942 11.3667C17.8246 11.3961 18.6113 11.7503 19.1887 12.3547C19.766 12.9591 20.0889 13.7665 20.0893 14.6068C20.0897 15.4472 19.7676 16.255 19.1909 16.8599C18.6142 17.4649 17.8278 17.8199 16.9974 17.8502" fill="#FF5C35"/>
</svg>
