<svg width="13" height="13" viewBox="0 0 13 13" fill="none" xmlns="http://www.w3.org/2000/svg">
<path d="M6.30486 4.31221C5.20783 4.31221 4.31257 5.20747 4.31257 6.3045C4.31257 7.40153 5.20783 8.29679 6.30486 8.29679C7.40189 8.29679 8.29715 7.40153 8.29715 6.3045C8.29715 5.20747 7.40189 4.31221 6.30486 4.31221ZM12.2802 6.3045C12.2802 5.47948 12.2877 4.66194 12.2414 3.83842C12.195 2.88188 11.9768 2.03295 11.2774 1.33348C10.5764 0.632522 9.72897 0.415806 8.77243 0.369474C7.94742 0.323141 7.12988 0.330614 6.30636 0.330614C5.48134 0.330614 4.6638 0.323141 3.84028 0.369474C2.88374 0.415806 2.03482 0.634016 1.33535 1.33348C0.634383 2.03445 0.417667 2.88188 0.371335 3.83842C0.325003 4.66343 0.332476 5.48098 0.332476 6.3045C0.332476 7.12802 0.325003 7.94705 0.371335 8.77057C0.417667 9.72711 0.635878 10.576 1.33535 11.2755C2.03631 11.9765 2.88374 12.1932 3.84028 12.2395C4.6653 12.2859 5.48284 12.2784 6.30636 12.2784C7.13137 12.2784 7.94891 12.2859 8.77243 12.2395C9.72897 12.1932 10.5779 11.975 11.2774 11.2755C11.9783 10.5745 12.195 9.72711 12.2414 8.77057C12.2892 7.94705 12.2802 7.12951 12.2802 6.3045ZM6.30486 9.3699C4.6085 9.3699 3.23946 8.00086 3.23946 6.3045C3.23946 4.60813 4.6085 3.23909 6.30486 3.23909C8.00122 3.23909 9.37027 4.60813 9.37027 6.3045C9.37027 8.00086 8.00122 9.3699 6.30486 9.3699ZM9.49582 3.82945C9.09975 3.82945 8.77991 3.50961 8.77991 3.11354C8.77991 2.71748 9.09975 2.39763 9.49582 2.39763C9.89188 2.39763 10.2117 2.71748 10.2117 3.11354C10.2118 3.20759 10.1934 3.30074 10.1575 3.38765C10.1215 3.47456 10.0688 3.55353 10.0023 3.62003C9.9358 3.68653 9.85683 3.73926 9.76992 3.7752C9.68301 3.81113 9.58986 3.82957 9.49582 3.82945Z" fill="black"/>
</svg>
