<svg width="20" height="19" viewBox="0 0 20 19" fill="none" xmlns="http://www.w3.org/2000/svg">
<path d="M10.2884 5.76296L9.95963 6.75H11H18C18.3315 6.75 18.6495 6.8817 18.8839 7.11612C19.1183 7.35054 19.25 7.66848 19.25 8V9.91927L19.1962 10.1662L15.5173 18.25H5.75V5.73039L10.3255 0.754088C10.4886 0.767315 10.648 0.81249 10.7942 0.887398C10.9705 0.977651 11.1228 1.10848 11.2385 1.26912C11.3543 1.42976 11.4303 1.6156 11.4602 1.81135C11.49 2.00709 11.473 2.20713 11.4104 2.395L10.2884 5.76296ZM2 6.75H2.25V18.25H2C1.66848 18.25 1.35054 18.1183 1.11612 17.8839C0.881696 17.6495 0.75 17.3315 0.75 17V8C0.75 7.66848 0.881696 7.35054 1.11612 7.11612C1.35054 6.8817 1.66848 6.75 2 6.75Z" fill="#8D84EF" stroke="#8D84EF" stroke-width="1.5"/>
</svg>
