<svg width="22" height="18" viewBox="0 0 22 18" fill="none" xmlns="http://www.w3.org/2000/svg">
<path d="M5.34587 17.0553H1.04573V5.72517H5.34587V17.0553ZM3.19349 4.17963C1.81844 4.17963 0.703125 3.24776 0.703125 2.1227C0.703125 1.58229 0.965502 1.06401 1.43253 0.681886C1.89957 0.29976 2.533 0.085083 3.19349 0.085083C3.85397 0.085083 4.4874 0.29976 4.95444 0.681886C5.42147 1.06401 5.68385 1.58229 5.68385 2.1227C5.68385 3.24776 4.56807 4.17963 3.19349 4.17963ZM21.4399 17.0553H17.149V11.5399C17.149 10.2254 17.1166 8.53972 14.9133 8.53972C12.6776 8.53972 12.335 9.96783 12.335 11.4452V17.0553H8.03948V5.72517H12.1637V7.27071H12.2239C12.798 6.38051 14.2003 5.44106 16.2925 5.44106C20.6445 5.44106 21.4446 7.78589 21.4446 10.8315V17.0553H21.4399Z" fill="#1B1C17"/>
</svg>
