<svg width="15" height="12" viewBox="0 0 15 12" fill="none" xmlns="http://www.w3.org/2000/svg">
<path d="M3.84951 11.4426H1.10716V4.21699H3.84951V11.4426ZM2.47686 3.23134C1.59995 3.23134 0.888672 2.63706 0.888672 1.91957C0.888672 1.57493 1.056 1.24441 1.35384 1.00072C1.65168 0.757023 2.05564 0.620117 2.47686 0.620117C2.89807 0.620117 3.30203 0.757023 3.59987 1.00072C3.89772 1.24441 4.06504 1.57493 4.06504 1.91957C4.06504 2.63706 3.35347 3.23134 2.47686 3.23134ZM14.1132 11.4426H11.3768V7.92522C11.3768 7.08695 11.3561 6.01192 9.95098 6.01192C8.52519 6.01192 8.3067 6.92267 8.3067 7.86483V11.4426H5.56731V4.21699H8.19746V5.20263H8.23584C8.60196 4.63492 9.49629 4.0358 10.8306 4.0358C13.606 4.0358 14.1162 5.53118 14.1162 7.47347V11.4426H14.1132Z" fill="#1B1C17"/>
</svg>
