<svg width="16" height="18" viewBox="0 0 16 18" fill="none" xmlns="http://www.w3.org/2000/svg">
<path d="M8.59676 16.699L8.95286 17.3591L8.59676 16.699ZM7.40324 16.699L7.04714 17.3591H7.04714L7.40324 16.699ZM14.25 8.00024C14.25 10.1456 13.2023 11.9163 11.89 13.2945C10.577 14.6735 9.05225 15.6011 8.24066 16.039L8.95286 17.3591C9.83401 16.8837 11.5109 15.868 12.9763 14.3289C14.4425 12.789 15.75 10.6669 15.75 8.00024H14.25ZM8 1.75024C11.4518 1.75024 14.25 4.54846 14.25 8.00024H15.75C15.75 3.72004 12.2802 0.250244 8 0.250244V1.75024ZM1.75 8.00024C1.75 4.54846 4.54822 1.75024 8 1.75024V0.250244C3.71979 0.250244 0.25 3.72004 0.25 8.00024H1.75ZM7.75934 16.039C6.94775 15.6011 5.42299 14.6735 4.11001 13.2945C2.79773 11.9163 1.75 10.1456 1.75 8.00024H0.25C0.25 10.6669 1.55751 12.789 3.02367 14.3289C4.48912 15.868 6.16599 16.8837 7.04714 17.3591L7.75934 16.039ZM8.24066 16.039C8.08687 16.1219 7.91313 16.1219 7.75934 16.039L7.04714 17.3591C7.64545 17.6819 8.35455 17.6819 8.95286 17.3591L8.24066 16.039ZM10.2499 8.00018C10.2499 9.24282 9.24258 10.2502 7.99994 10.2502V11.7502C10.071 11.7502 11.7499 10.0712 11.7499 8.00018H10.2499ZM7.99994 5.75018C9.24258 5.75018 10.2499 6.75754 10.2499 8.00018H11.7499C11.7499 5.92911 10.071 4.25018 7.99994 4.25018V5.75018ZM5.74994 8.00018C5.74994 6.75754 6.7573 5.75018 7.99994 5.75018V4.25018C5.92887 4.25018 4.24994 5.92911 4.24994 8.00018H5.74994ZM7.99994 10.2502C6.7573 10.2502 5.74994 9.24282 5.74994 8.00018H4.24994C4.24994 10.0713 5.92887 11.7502 7.99994 11.7502V10.2502Z" fill="#707070"/>
</svg>
