<svg width="20" height="20" viewBox="0 0 20 20" fill="none" xmlns="http://www.w3.org/2000/svg">
<circle cx="10" cy="10" r="9.25" stroke="white" stroke-opacity="0.7" stroke-width="1.5"/>
<path d="M9.18262 11.7393L9.08008 4.81445H10.7207L10.6113 11.7393H9.18262ZM9.90039 15.0957C9.61328 15.0957 9.37174 15.0023 9.17578 14.8154C8.98438 14.624 8.88867 14.3893 8.88867 14.1113C8.88867 13.8288 8.98438 13.5941 9.17578 13.4072C9.37174 13.2158 9.61328 13.1201 9.90039 13.1201C10.1829 13.1201 10.4199 13.2158 10.6113 13.4072C10.8073 13.5941 10.9053 13.8288 10.9053 14.1113C10.9053 14.3893 10.8073 14.624 10.6113 14.8154C10.4199 15.0023 10.1829 15.0957 9.90039 15.0957Z" fill="white" fill-opacity="0.7"/>
</svg>
