<svg width="17" height="15" viewBox="0 0 17 15" fill="none" xmlns="http://www.w3.org/2000/svg">
<path d="M14.5695 0.714294H7.42662C6.8583 0.714294 6.31325 0.940059 5.91139 1.34192C5.50953 1.74379 5.28376 2.28883 5.28376 2.85715V7.85715C5.28376 8.42547 5.50953 8.97052 5.91139 9.37238C6.31325 9.77424 6.8583 10 7.42662 10H14.5695C15.1378 10 15.6828 9.77424 16.0847 9.37238C16.4866 8.97052 16.7123 8.42547 16.7123 7.85715V2.85715C16.7123 2.28883 16.4866 1.74379 16.0847 1.34192C15.6828 0.940059 15.1378 0.714294 14.5695 0.714294ZM15.2838 7.85715C15.2838 8.04659 15.2085 8.22827 15.0746 8.36223C14.9406 8.49618 14.7589 8.57144 14.5695 8.57144H7.42662C7.23718 8.57144 7.0555 8.49618 6.92154 8.36223C6.78759 8.22827 6.71233 8.04659 6.71233 7.85715V2.85715C6.71233 2.66771 6.78759 2.48603 6.92154 2.35208C7.0555 2.21812 7.23718 2.14287 7.42662 2.14287H14.5695C14.7589 2.14287 14.9406 2.21812 15.0746 2.35208C15.2085 2.48603 15.2838 2.66771 15.2838 2.85715V7.85715ZM12.7838 5.00001C12.5193 5.0009 12.2647 5.10021 12.0695 5.27858C11.9159 5.13897 11.725 5.04699 11.5202 5.0138C11.3153 4.98061 11.1051 5.00764 10.9153 5.09162C10.7255 5.1756 10.5642 5.3129 10.4509 5.48684C10.3377 5.66079 10.2774 5.86388 10.2774 6.07144C10.2774 6.279 10.3377 6.48209 10.4509 6.65603C10.5642 6.82997 10.7255 6.96728 10.9153 7.05125C11.1051 7.13523 11.3153 7.16227 11.5202 7.12908C11.725 7.09589 11.9159 7.0039 12.0695 6.86429C12.1985 6.98153 12.3541 7.06552 12.5229 7.10899C12.6917 7.15246 12.8686 7.15409 13.0381 7.11375C13.2077 7.0734 13.3649 6.99229 13.496 6.87745C13.6271 6.76262 13.7282 6.61752 13.7906 6.45475C13.853 6.29199 13.8747 6.11646 13.8539 5.94341C13.833 5.77035 13.7703 5.60499 13.6711 5.46167C13.5719 5.31834 13.4392 5.20138 13.2846 5.12093C13.13 5.04049 12.9581 4.99898 12.7838 5.00001ZM11.7123 11.4286C11.5229 11.4286 11.3412 11.5038 11.2073 11.6378C11.0733 11.7717 10.998 11.9534 10.998 12.1429V12.8572C10.998 13.0466 10.9228 13.2283 10.7888 13.3622C10.6549 13.4962 10.4732 13.5714 10.2838 13.5714H3.1409C2.95146 13.5714 2.76978 13.4962 2.63583 13.3622C2.50187 13.2283 2.42662 13.0466 2.42662 12.8572V10H3.1409C3.33034 10 3.51203 9.92475 3.64598 9.7908C3.77994 9.65685 3.85519 9.47516 3.85519 9.28572C3.85519 9.09628 3.77994 8.9146 3.64598 8.78065C3.51203 8.64669 3.33034 8.57144 3.1409 8.57144H2.42662V7.85715C2.42662 7.66771 2.50187 7.48603 2.63583 7.35208C2.76978 7.21812 2.95146 7.14287 3.1409 7.14287C3.33034 7.14287 3.51203 7.06761 3.64598 6.93366C3.77994 6.7997 3.85519 6.61802 3.85519 6.42858C3.85519 6.23914 3.77994 6.05746 3.64598 5.9235C3.51203 5.78955 3.33034 5.71429 3.1409 5.71429C2.57258 5.71429 2.02754 5.94006 1.62568 6.34192C1.22381 6.74379 0.998047 7.28883 0.998047 7.85715V12.8572C0.998047 13.4255 1.22381 13.9705 1.62568 14.3724C2.02754 14.7742 2.57258 15 3.1409 15H10.2838C10.8521 15 11.3971 14.7742 11.799 14.3724C12.2009 13.9705 12.4266 13.4255 12.4266 12.8572V12.1429C12.4266 11.9534 12.3514 11.7717 12.2174 11.6378C12.0835 11.5038 11.9018 11.4286 11.7123 11.4286ZM4.56948 12.1429H5.28376C5.4732 12.1429 5.65488 12.0676 5.78884 11.9337C5.92279 11.7997 5.99805 11.618 5.99805 11.4286C5.99805 11.2391 5.92279 11.0575 5.78884 10.9235C5.65488 10.7895 5.4732 10.7143 5.28376 10.7143H4.56948C4.38004 10.7143 4.19835 10.7895 4.0644 10.9235C3.93044 11.0575 3.85519 11.2391 3.85519 11.4286C3.85519 11.618 3.93044 11.7997 4.0644 11.9337C4.19835 12.0676 4.38004 12.1429 4.56948 12.1429Z" fill="#1B1C17"/>
</svg>
