<svg width="16" height="17" viewBox="0 0 16 17" fill="none" xmlns="http://www.w3.org/2000/svg">
<path d="M13.7716 2.81481C14.3333 3.65555 14.3333 4.82594 14.3333 7.16671C14.3333 9.50748 14.3333 10.6779 13.7716 11.5186C13.5284 11.8826 13.2159 12.1951 12.8519 12.4383C12.1174 12.929 11.1314 12.9911 9.33333 12.9989V13L8.41202 14.8427C8.10492 15.4569 7.22841 15.4569 6.92131 14.8427L6 13V12.9989C4.20191 12.9911 3.21589 12.929 2.48143 12.4383C2.11747 12.1951 1.80496 11.8826 1.56177 11.5186C1 10.6779 1 9.50748 1 7.16671C1 4.82594 1 3.65555 1.56177 2.81481C1.80496 2.45084 2.11747 2.13834 2.48143 1.89514C3.32218 1.33337 4.49256 1.33337 6.83333 1.33337H8.5C10.8408 1.33337 12.0112 1.33337 12.8519 1.89514C13.2159 2.13834 13.5284 2.45084 13.7716 2.81481Z" stroke="#707070" stroke-width="1.4" stroke-linecap="round" stroke-linejoin="round"/>
<path d="M5.16699 5.5L10.167 5.5" stroke="#707070" stroke-width="1.4" stroke-linecap="round" stroke-linejoin="round"/>
<path d="M5.16699 8.83337H7.66699" stroke="#707070" stroke-width="1.4" stroke-linecap="round" stroke-linejoin="round"/>
</svg>
