<svg width="22" height="22" viewBox="0 0 22 22" fill="none" xmlns="http://www.w3.org/2000/svg">
<path d="M7.70685 2.29297C7.31685 2.68297 7.33785 3.31397 7.56885 3.81597C7.81014 4.34122 7.88481 4.92776 7.78282 5.49671C7.68083 6.06566 7.40706 6.58974 6.99834 6.99846C6.58961 7.40718 6.06554 7.68095 5.49659 7.78294C4.92764 7.88493 4.3411 7.81026 3.81585 7.56897C3.31385 7.33897 2.68285 7.31697 2.29285 7.70697L1.70685 8.29297C1.51938 8.4805 1.41406 8.73481 1.41406 8.99997C1.41406 9.26514 1.51938 9.51944 1.70685 9.70697L12.2928 20.293C12.4804 20.4804 12.7347 20.5858 12.9998 20.5858C13.265 20.5858 13.5193 20.4804 13.7068 20.293L14.2928 19.707C14.6828 19.317 14.6618 18.686 14.4308 18.184C14.1896 17.6587 14.1149 17.0722 14.2169 16.5032C14.3189 15.9343 14.5926 15.4102 15.0014 15.0015C15.4101 14.5928 15.9342 14.319 16.5031 14.217C17.0721 14.115 17.6586 14.1897 18.1838 14.431C18.6858 14.661 19.3169 14.683 19.7069 14.293L20.2928 13.707C20.4803 13.5194 20.5856 13.2651 20.5856 13C20.5856 12.7348 20.4803 12.4805 20.2928 12.293L9.70685 1.70697C9.51932 1.5195 9.26501 1.41418 8.99985 1.41418C8.73468 1.41418 8.48038 1.5195 8.29285 1.70697L7.70685 2.29297Z" stroke="black" stroke-width="2" stroke-linecap="round" stroke-linejoin="round"/>
</svg>
