<svg width="14" height="14" viewBox="0 0 14 14" fill="none" xmlns="http://www.w3.org/2000/svg">
<path fill-rule="evenodd" clip-rule="evenodd" d="M10.0984 13.9091C9.11654 13.873 6.33404 13.4884 3.41995 10.575C0.506536 7.66091 0.122672 4.87909 0.0858539 3.89659C0.0313085 2.39932 1.17813 0.944998 2.5029 0.377043C2.66243 0.308157 2.83713 0.28193 3.00985 0.300935C3.18258 0.319941 3.34739 0.383526 3.48813 0.485452C4.57904 1.28045 5.33176 2.48318 5.97813 3.42886C6.12034 3.63663 6.18115 3.88946 6.14896 4.13918C6.11677 4.38889 5.99384 4.61804 5.80358 4.78295L4.47335 5.77091C4.40909 5.81732 4.36385 5.88547 4.34604 5.96272C4.32824 6.03997 4.33907 6.12105 4.37654 6.19091C4.6779 6.73841 5.21381 7.55386 5.82745 8.1675C6.44176 8.78114 7.2954 9.3525 7.88108 9.68796C7.95452 9.72918 8.04095 9.7407 8.12262 9.72016C8.20429 9.69961 8.27499 9.64856 8.32017 9.5775L9.18608 8.25955C9.34528 8.04808 9.58012 7.90641 9.84143 7.86422C10.1027 7.82202 10.3702 7.88257 10.5879 8.03318C11.5472 8.69727 12.6668 9.43705 13.4863 10.4864C13.5965 10.6281 13.6666 10.7969 13.6893 10.975C13.7119 11.1531 13.6864 11.334 13.6152 11.4989C13.0445 12.8305 11.6004 13.9643 10.0984 13.9091Z" fill="#0FA958"/>
</svg>
