<svg width="20" height="14" viewBox="0 0 20 14" fill="none" xmlns="http://www.w3.org/2000/svg">
<path fill-rule="evenodd" clip-rule="evenodd" d="M3 0C2.20435 0 1.44129 0.316071 0.87868 0.87868C0.316071 1.44129 0 2.20435 0 3V11C0 11.7956 0.316071 12.5587 0.87868 13.1213C1.44129 13.6839 2.20435 14 3 14H13C13.7956 14 14.5587 13.6839 15.1213 13.1213C15.6839 12.5587 16 11.7956 16 11V9.414L18.293 11.707C18.4329 11.8468 18.611 11.942 18.805 11.9806C18.9989 12.0192 19.2 11.9993 19.3827 11.9237C19.5654 11.848 19.7215 11.7199 19.8314 11.5555C19.9413 11.391 20 11.1978 20 11V3C20 2.80225 19.9413 2.60895 19.8314 2.44454C19.7215 2.28013 19.5654 2.15199 19.3827 2.07632C19.2 2.00065 18.9989 1.98085 18.805 2.01942C18.611 2.05798 18.4329 2.15319 18.293 2.293L16 4.586V3C16 2.20435 15.6839 1.44129 15.1213 0.87868C14.5587 0.316071 13.7956 0 13 0H3Z" fill="#B0B0B0"/>
</svg>
