<svg width="18" height="18" viewBox="0 0 18 18" fill="none" xmlns="http://www.w3.org/2000/svg">
<path d="M8.99816 1.63062C7.66516 1.63103 6.35724 1.993 5.2137 2.67797C4.07016 3.36294 3.13382 4.34526 2.50441 5.52031C1.87501 6.69535 1.57611 8.01911 1.63955 9.3506C1.70299 10.6821 2.1264 11.9714 2.86467 13.0813L1.62891 16.3691L5.76703 15.6209C6.76347 16.1078 7.85697 16.3635 8.96602 16.369C10.0751 16.3745 11.171 16.1296 12.1723 15.6526C13.1735 15.1755 14.0541 14.4787 14.7485 13.6139C15.4429 12.7491 15.9332 11.7388 16.1828 10.6582C16.4323 9.57758 16.4348 8.45457 16.1899 7.37288C15.9451 6.29119 15.4592 5.27872 14.7686 4.41094C14.078 3.54316 13.2004 2.84245 12.2012 2.36105C11.2021 1.87964 10.1072 1.62996 8.99816 1.63062V1.63062Z" stroke="#707070" stroke-width="1.5" stroke-linecap="round" stroke-linejoin="round"/>
</svg>
