<svg width="20" height="20" viewBox="0 0 20 20" fill="none" xmlns="http://www.w3.org/2000/svg">
<path d="M16.8445 13.5858C15.5207 12.3052 14.3681 11.1883 13.2154 10.0732C11.8973 8.79835 10.9843 8.75078 9.7366 10.0409C9.18501 10.6117 8.86736 10.5109 8.40897 9.99711C7.92395 9.45481 7.37616 8.9696 6.84739 8.46726C5.69475 7.37125 4.73803 7.31797 3.63294 8.43111C2.67241 9.39773 1.82409 10.4747 0.880679 11.4604C0.365224 11.0589 0.507878 10.7792 0.505976 10.5546C0.492661 8.52434 0.481249 6.49596 0.504074 4.46567C0.526898 2.306 2.07136 0.713354 4.20545 0.69052C7.18406 0.658173 10.1646 0.658173 13.1451 0.69052C15.1974 0.711451 16.8008 2.25462 16.8331 4.283C16.8788 7.29133 16.8445 10.3016 16.8445 13.5858Z" fill="#B0B0B0"/>
<path d="M5.36816 17.0222C7.09712 15.1233 9.01438 13.0207 10.9297 10.9124C11.2854 10.5204 11.5936 10.5546 11.9645 10.92C13.2712 12.2063 14.5817 13.4907 15.9264 14.737C16.3525 15.1309 16.2517 15.3954 15.9283 15.7493C15.2607 16.4838 14.4352 16.9899 13.4576 17.007C10.5931 17.0546 7.7248 17.0222 5.36816 17.0222Z" fill="#B0B0B0"/>
<path d="M3.73242 18.0079C7.03247 18.0079 10.1328 18.0098 13.2331 18.0079C16.1376 18.0041 17.8133 16.322 17.819 13.3974C17.8247 10.3015 17.8209 7.20568 17.8209 3.96521C18.8461 4.71111 19.2835 5.63206 19.3026 6.70143C19.3444 9.17317 19.3748 11.6487 19.2988 14.1185C19.2075 17.0508 16.731 19.4502 13.8076 19.5016C11.4319 19.5415 9.05434 19.5187 6.67679 19.5073C5.54127 19.4997 4.60546 19.0506 3.73242 18.0079Z" fill="#B0B0B0"/>
<path d="M5.26681 9.1123C5.37523 9.18461 5.51978 9.25311 5.6282 9.35777C6.3757 10.0827 7.55497 10.724 7.73756 11.5745C7.92206 12.4422 6.5583 13.0111 5.88497 13.719C5.05758 14.5886 4.1389 15.3706 3.31912 16.2459C2.86643 16.7292 2.51835 16.7102 2.04474 16.3201C1.67385 16.0157 1.33909 15.6922 1.08421 15.2869C0.311983 14.0539 0.359534 13.6334 1.40185 12.623C2.4651 11.5878 3.53405 10.5584 4.603 9.52521C4.78369 9.35015 4.95487 9.16368 5.26681 9.1123Z" fill="#B0B0B0"/>
<path d="M11.7279 4.65979C12.3425 4.71497 12.7973 5.0746 12.8563 5.8205C12.9115 6.50741 12.3368 7.11821 11.6575 7.12963C10.9972 7.14104 10.3826 6.52073 10.3998 5.85855C10.4169 5.20589 10.963 4.67121 11.7279 4.65979Z" fill="#F7F9FA"/>
</svg>
