<svg width="31" height="31" viewBox="0 0 31 31" fill="none" xmlns="http://www.w3.org/2000/svg">
<path d="M11.8542 7.47916V11.8542H7.47925V7.47916H11.8542ZM14.0417 5.29166H5.29175V14.0417H14.0417V5.29166ZM11.8542 19.1458V23.5208H7.47925V19.1458H11.8542ZM14.0417 16.9583H5.29175V25.7083H14.0417V16.9583ZM23.5209 7.47916V11.8542H19.1459V7.47916H23.5209ZM25.7084 5.29166H16.9584V14.0417H25.7084V5.29166ZM16.9584 16.9583H19.1459V19.1458H16.9584V16.9583ZM19.1459 19.1458H21.3334V21.3333H19.1459V19.1458ZM21.3334 16.9583H23.5209V19.1458H21.3334V16.9583ZM16.9584 21.3333H19.1459V23.5208H16.9584V21.3333ZM19.1459 23.5208H21.3334V25.7083H19.1459V23.5208ZM21.3334 21.3333H23.5209V23.5208H21.3334V21.3333ZM23.5209 19.1458H25.7084V21.3333H23.5209V19.1458ZM23.5209 23.5208H25.7084V25.7083H23.5209V23.5208ZM30.0834 8.20832H27.1667V3.83332H22.7917V0.916656H30.0834V8.20832ZM30.0834 30.0833V22.7917H27.1667V27.1667H22.7917V30.0833H30.0834ZM0.916748 30.0833H8.20842V27.1667H3.83341V22.7917H0.916748V30.0833ZM0.916748 0.916656V8.20832H3.83341V3.83332H8.20842V0.916656H0.916748Z" fill="black"/>
</svg>
