<svg width="25" height="26" viewBox="0 0 25 26" fill="none" xmlns="http://www.w3.org/2000/svg">
<path d="M20.1314 6.96368C20.8337 8.01462 20.8337 9.4776 20.8337 12.4036C20.8337 15.3295 20.8337 16.7925 20.1314 17.8434C19.8275 18.2984 19.4368 18.689 18.9819 18.993C18.0638 19.6065 16.8313 19.684 14.5837 19.6938V19.6952L13.432 21.9985C13.0481 22.7663 11.9525 22.7663 11.5686 21.9985L10.417 19.6952V19.6938C8.16938 19.684 6.93686 19.6065 6.01878 18.993C5.56382 18.689 5.1732 18.2984 4.8692 17.8434C4.16699 16.7925 4.16699 15.3295 4.16699 12.4036C4.16699 9.4776 4.16699 8.01462 4.8692 6.96368C5.1732 6.50872 5.56382 6.1181 6.01878 5.8141C7.06971 5.11189 8.53269 5.11189 11.4587 5.11189H13.542C16.468 5.11189 17.9309 5.11189 18.9819 5.8141C19.4368 6.1181 19.8275 6.50872 20.1314 6.96368Z" stroke="white" stroke-opacity="0.7" stroke-width="1.5" stroke-linecap="round" stroke-linejoin="round"/>
<path d="M9.375 10.3202L15.625 10.3202" stroke="white" stroke-opacity="0.7" stroke-width="1.5" stroke-linecap="round" stroke-linejoin="round"/>
<path d="M9.375 14.4869H12.5" stroke="white" stroke-opacity="0.7" stroke-width="1.5" stroke-linecap="round" stroke-linejoin="round"/>
</svg>
