<svg width="17" height="17" viewBox="0 0 17 17" fill="none" xmlns="http://www.w3.org/2000/svg">
<path d="M0.386719 0.493408C5.80292 3.20259 10.9934 5.79789 16.3797 8.49109C11.0254 11.1683 5.82888 13.7656 0.614391 16.3729C0.444636 16.0592 0.650339 15.8514 0.738213 15.6317C1.49113 13.7516 2.274 11.8836 3.00095 9.99153C3.21465 9.43811 3.50223 9.23631 4.09538 9.2483C5.92474 9.28427 7.75611 9.27428 9.58547 9.2543C10.1746 9.2483 11.0314 9.48606 11.0394 8.52306C11.0494 7.49613 10.1527 7.73987 9.53355 7.73188C7.70418 7.70791 5.87282 7.70191 4.04345 7.73588C3.48626 7.74587 3.21664 7.54807 3.01693 7.0386C2.19811 4.93679 1.33935 2.85096 0.386719 0.493408Z" fill="black"/>
</svg>
