<svg width="16" height="18" viewBox="0 0 16 18" fill="none" xmlns="http://www.w3.org/2000/svg">
<path d="M13.15 0.62738C12.4906 0.62738 11.8582 0.889324 11.3919 1.35559C10.9257 1.82185 10.6637 2.45423 10.6637 3.11363C10.6642 3.26956 10.6794 3.42509 10.7091 3.57818L4.81232 7.01781C4.36318 6.63734 3.79362 6.42856 3.205 6.42862C2.5456 6.42862 1.91322 6.69057 1.44695 7.15683C0.980693 7.62309 0.71875 8.25548 0.71875 8.91487C0.71875 9.57426 0.980693 10.2066 1.44695 10.6729C1.91322 11.1392 2.5456 11.4011 3.205 11.4011C3.79271 11.4 4.36102 11.1906 4.80908 10.8103L10.7091 14.2516C10.6794 14.4046 10.6642 14.5602 10.6637 14.7161C10.6637 15.3755 10.9257 16.0079 11.3919 16.4742C11.8582 16.9404 12.4906 17.2024 13.15 17.2024C13.8094 17.2024 14.4418 16.9404 14.908 16.4742C15.3743 16.0079 15.6362 15.3755 15.6362 14.7161C15.6362 14.0567 15.3743 13.4243 14.908 12.9581C14.4418 12.4918 13.8094 12.2299 13.15 12.2299C12.5617 12.2306 11.9928 12.44 11.5443 12.8207L5.64592 9.37942C5.67556 9.22633 5.69074 9.0708 5.69124 8.91487C5.69074 8.75894 5.67556 8.6034 5.64592 8.45032L11.5427 5.01068C11.9918 5.39116 12.5614 5.59994 13.15 5.59987C13.8094 5.59987 14.4418 5.33793 14.908 4.87167C15.3743 4.40541 15.6362 3.77302 15.6362 3.11363C15.6362 2.45423 15.3743 1.82185 14.908 1.35559C14.4418 0.889324 13.8094 0.62738 13.15 0.62738Z" fill="#303030"/>
</svg>
