<svg width="24" height="24" viewBox="0 0 24 24" fill="none" xmlns="http://www.w3.org/2000/svg">
<path d="M20.4906 9.39822C20.4906 14.0906 16.6867 17.8945 11.9943 17.8945C7.30197 17.8945 3.49805 14.0906 3.49805 9.39822C3.49805 4.70585 7.30197 0.901924 11.9943 0.901924C16.6867 0.901924 20.4906 4.70585 20.4906 9.39822Z" stroke="white" stroke-opacity="0.7" stroke-width="1.5" stroke-linecap="round" stroke-linejoin="round"/>
<path d="M4.63477 13.5656L0.856444 20.1099L4.93902 19.016L6.03294 23.0985L9.3112 17.4204" stroke="white" stroke-opacity="0.7" stroke-width="1.5" stroke-linecap="round" stroke-linejoin="round"/>
<path d="M19.3652 13.5656L23.1436 20.1099L19.061 19.016L17.9671 23.0985L14.6888 17.4204" stroke="white" stroke-opacity="0.7" stroke-width="1.5" stroke-linecap="round" stroke-linejoin="round"/>
<path d="M16.9679 14.0017C16.6749 13.1815 16.0292 12.4568 15.1311 11.9399C14.2329 11.423 13.1324 11.1429 12.0003 11.1429C10.8682 11.1429 9.76768 11.423 8.86951 11.9399C7.97134 12.4568 7.32568 13.1815 7.03266 14.0017" stroke="white" stroke-opacity="0.7" stroke-width="1.5" stroke-linecap="round"/>
<circle cx="11.9972" cy="6" r="2.57143" stroke="white" stroke-opacity="0.7" stroke-width="1.5" stroke-linecap="round"/>
</svg>
