<svg width="24" height="25" viewBox="0 0 24 25" fill="none" xmlns="http://www.w3.org/2000/svg">
<path d="M17.25 2.44522L18.4448 4.69522L21 5.00572L19.125 6.69547L19.5 9.19522L17.25 7.78897L15 9.19522L15.375 6.69547L13.5 5.00572L16.125 4.69522L17.25 2.44522Z" fill="white" fill-opacity="0.7"/>
<path d="M17.0381 10.882L15.5846 10.5085C15.3241 11.5121 14.7719 12.4161 13.9979 13.1061C13.2238 13.7961 12.2626 14.2412 11.2357 14.3852C10.2088 14.5291 9.16231 14.3655 8.22835 13.915C7.29439 13.4645 6.51492 12.7472 5.98841 11.8539C5.4619 10.9606 5.21197 9.93122 5.2702 8.89591C5.32843 7.86061 5.69221 6.86578 6.31557 6.03713C6.93894 5.20847 7.79392 4.58316 8.7725 4.24019C9.75109 3.89723 10.8094 3.852 11.8136 4.11022L12.1879 2.65747C10.7239 2.27665 9.17434 2.39923 7.78841 3.00547C6.40247 3.61172 5.26067 4.66642 4.54658 6C3.83248 7.33357 3.58759 8.86855 3.85128 10.3581C4.11496 11.8477 4.8719 13.2053 6.0004 14.2127V23.4452L10.5004 20.4452L15.0004 23.4452V14.2262C15.9965 13.3384 16.7059 12.1743 17.0381 10.882ZM13.5004 20.6425L10.5004 18.6422L7.5004 20.6425V15.2327C8.43117 15.7003 9.45824 15.9442 10.4999 15.945C11.5415 15.9458 12.5689 15.7034 13.5004 15.2372V20.6425Z" fill="white" fill-opacity="0.7"/>
</svg>
