<svg width="21" height="21" viewBox="0 0 21 21" fill="none" xmlns="http://www.w3.org/2000/svg">
<g clip-path="url(#clip0_1177_7105)">
<path d="M11.9395 10.9647L11.373 12.0878C10.8522 11.7167 10.2923 11.4335 9.69336 11.2382C9.0944 11.0428 8.4694 10.9452 7.81836 10.9452C7.24544 10.9452 6.69206 11.0201 6.1582 11.1698C5.62435 11.3195 5.1263 11.5279 4.66406 11.7948C4.20182 12.0617 3.7819 12.3872 3.4043 12.7714C3.02669 13.1555 2.70117 13.5787 2.42773 14.0409C2.1543 14.5031 1.94271 15.0012 1.79297 15.535C1.64323 16.0689 1.56836 16.6223 1.56836 17.1952H0.318359C0.318359 16.4139 0.432292 15.662 0.660156 14.9393C0.888021 14.2167 1.2168 13.5494 1.64648 12.9374C2.07617 12.3254 2.58398 11.7818 3.16992 11.3065C3.75586 10.8313 4.41992 10.4569 5.16211 10.1835C4.42643 9.7017 3.85352 9.09623 3.44336 8.36707C3.0332 7.6379 2.82487 6.83061 2.81836 5.94519C2.81836 5.25509 2.94857 4.6073 3.20898 4.00183C3.4694 3.39636 3.82422 2.86576 4.27344 2.41003C4.72266 1.95431 5.25326 1.59623 5.86523 1.33582C6.47721 1.0754 7.12826 0.94519 7.81836 0.94519C8.50846 0.94519 9.15625 1.0754 9.76172 1.33582C10.3672 1.59623 10.8978 1.95105 11.3535 2.40027C11.8092 2.84949 12.1673 3.38009 12.4277 3.99207C12.6882 4.60404 12.8184 5.25509 12.8184 5.94519C12.8184 6.37488 12.7663 6.7948 12.6621 7.20496C12.5579 7.61511 12.4017 8.00248 12.1934 8.36707C11.985 8.73165 11.7376 9.07019 11.4512 9.38269C11.1647 9.69519 10.8359 9.96537 10.4648 10.1932C10.7253 10.2974 10.9792 10.4113 11.2266 10.535C11.474 10.6587 11.7116 10.802 11.9395 10.9647ZM4.06836 5.94519C4.06836 6.46602 4.16602 6.95105 4.36133 7.40027C4.55664 7.84949 4.82357 8.24662 5.16211 8.59167C5.50065 8.93673 5.89779 9.20691 6.35352 9.40222C6.80924 9.59753 7.29753 9.69519 7.81836 9.69519C8.33268 9.69519 8.81771 9.59753 9.27344 9.40222C9.72917 9.20691 10.1263 8.93998 10.4648 8.60144C10.8034 8.2629 11.0736 7.86576 11.2754 7.41003C11.4772 6.95431 11.5749 6.46602 11.5684 5.94519C11.5684 5.43087 11.4707 4.94584 11.2754 4.49011C11.0801 4.03438 10.8132 3.63725 10.4746 3.29871C10.1361 2.96016 9.73568 2.68998 9.27344 2.48816C8.8112 2.28634 8.32617 2.18868 7.81836 2.19519C7.29753 2.19519 6.8125 2.29285 6.36328 2.48816C5.91406 2.68347 5.51693 2.9504 5.17188 3.28894C4.82682 3.62748 4.55664 4.02787 4.36133 4.49011C4.16602 4.95235 4.06836 5.43738 4.06836 5.94519ZM17.6914 12.1952H20.3184L13.7559 20.9452H11.1777L13.6777 15.9452H11.1777L14.957 8.44519H20.0156L17.6914 12.1952ZM13.3555 19.4022L17.8184 13.4452H15.4453L17.7695 9.69519H15.7285L13.209 14.6952H15.709L13.3555 19.4022Z" fill="white" fill-opacity="0.7"/>
</g>
<defs>
<clipPath id="clip0_1177_7105">
<rect width="20" height="20" fill="white" transform="translate(0.318359 0.94519)"/>
</clipPath>
</defs>
</svg>
