<svg width="24" height="25" viewBox="0 0 24 25" fill="none" xmlns="http://www.w3.org/2000/svg">
<path fill-rule="evenodd" clip-rule="evenodd" d="M20.8064 8.56879L20.184 7.4887C19.6574 6.57478 18.4905 6.2595 17.5753 6.78389V6.78389C17.1397 7.04052 16.6198 7.11333 16.1305 6.98626C15.6411 6.8592 15.2224 6.54269 14.9666 6.10655C14.8021 5.82933 14.7137 5.51357 14.7103 5.19122V5.19122C14.7251 4.6744 14.5302 4.17358 14.1698 3.80285C13.8094 3.43211 13.3143 3.22304 12.7973 3.22325H11.5433C11.0367 3.22325 10.5511 3.42509 10.1938 3.78412C9.83644 4.14315 9.63693 4.62977 9.63937 5.1363V5.1363C9.62435 6.1821 8.77224 7.02199 7.72632 7.02188C7.40397 7.01853 7.08821 6.93012 6.81099 6.76559V6.76559C5.89582 6.24119 4.72887 6.55647 4.20229 7.47039L3.5341 8.56879C3.00817 9.48157 3.31916 10.6478 4.22975 11.1775V11.1775C4.82166 11.5192 5.18629 12.1508 5.18629 12.8342C5.18629 13.5177 4.82166 14.1493 4.22975 14.491V14.491C3.32031 15.0171 3.00898 16.1805 3.5341 17.0905V17.0905L4.16568 18.1798C4.4124 18.625 4.82636 18.9535 5.31595 19.0926C5.80554 19.2318 6.3304 19.1701 6.77438 18.9212V18.9212C7.21084 18.6665 7.73094 18.5967 8.2191 18.7274C8.70725 18.858 9.12299 19.1782 9.37392 19.6168C9.53845 19.8941 9.62686 20.2098 9.63021 20.5322V20.5322C9.63021 21.5887 10.4867 22.4452 11.5433 22.4452H12.7973C13.8502 22.4452 14.7053 21.5943 14.7103 20.5413V20.5413C14.7079 20.0332 14.9086 19.5452 15.2679 19.1859C15.6272 18.8266 16.1152 18.6258 16.6233 18.6283C16.9449 18.6369 17.2594 18.7249 17.5387 18.8846V18.8846C18.4515 19.4105 19.6177 19.0995 20.1474 18.1889V18.1889L20.8064 17.0905C21.0615 16.6527 21.1315 16.1312 21.001 15.6416C20.8704 15.1519 20.55 14.7345 20.1108 14.4818V14.4818C19.6715 14.2291 19.3511 13.8118 19.2206 13.3221C19.09 12.8325 19.16 12.311 19.4151 11.8731C19.581 11.5835 19.8211 11.3434 20.1108 11.1775V11.1775C21.0159 10.6481 21.3262 9.48867 20.8064 8.57794V8.57794V8.56879Z" stroke="white" stroke-opacity="0.7" stroke-width="1.5" stroke-linecap="round" stroke-linejoin="round"/>
<circle cx="12.1752" cy="12.8342" r="2.63616" stroke="white" stroke-opacity="0.7" stroke-width="1.5" stroke-linecap="round" stroke-linejoin="round"/>
</svg>
