<svg width="19" height="19" viewBox="0 0 19 19" fill="none" xmlns="http://www.w3.org/2000/svg">
<path d="M6.78544 8.82143C8.65926 8.82143 10.1783 7.30239 10.1783 5.42857C10.1783 3.55475 8.65926 2.03571 6.78544 2.03571C4.91161 2.03571 3.39258 3.55475 3.39258 5.42857C3.39258 7.30239 4.91161 8.82143 6.78544 8.82143Z" stroke="#CDEF84" stroke-linecap="round" stroke-linejoin="round"/>
<path d="M0.677734 18.3214H6.78488H12.892V17.5857C12.8812 16.5512 12.6084 15.5364 12.0991 14.636C11.5897 13.7356 10.8605 12.979 9.97949 12.4368C9.09847 11.8947 8.0944 11.5846 7.06108 11.5357C6.96895 11.5314 6.87686 11.5291 6.78488 11.5289C6.69289 11.5291 6.6008 11.5314 6.50867 11.5357C5.47535 11.5846 4.47129 11.8947 3.59026 12.4368C2.70924 12.979 1.98001 13.7356 1.47068 14.636C0.961346 15.5364 0.688538 16.5512 0.677734 17.5857V18.3214Z" stroke="#CDEF84" stroke-linecap="round" stroke-linejoin="round"/>
<path d="M12.2148 8.82143C14.0887 8.82143 15.6077 7.30239 15.6077 5.42857C15.6077 3.55475 14.0887 2.03571 12.2148 2.03571" stroke="#CDEF84" stroke-linecap="round" stroke-linejoin="round"/>
<path d="M15.608 18.3214H18.3223V17.5857C18.3115 16.5512 18.0387 15.5364 17.5293 14.636C17.02 13.7356 16.2908 12.979 15.4097 12.4368C14.8402 12.0864 14.2193 11.8329 13.5723 11.6842" stroke="#CDEF84" stroke-linecap="round" stroke-linejoin="round"/>
</svg>
