<svg width="25" height="26" viewBox="0 0 25 26" fill="none" xmlns="http://www.w3.org/2000/svg">
<path d="M23.9065 15.6327C23.8245 15.6943 23.7311 15.7391 23.6317 15.7645C23.5323 15.79 23.4289 15.7956 23.3273 15.7811C23.2257 15.7666 23.128 15.7322 23.0398 15.68C22.9515 15.6277 22.8744 15.5586 22.8128 15.4765C22.3419 14.8435 21.729 14.33 21.0234 13.9772C20.3178 13.6244 19.5392 13.4422 18.7503 13.4452C18.5967 13.4452 18.4464 13.3999 18.3184 13.315C18.1904 13.23 18.0903 13.1092 18.0306 12.9677C17.99 12.8716 17.9691 12.7683 17.9691 12.664C17.9691 12.5597 17.99 12.4564 18.0306 12.3603C18.0903 12.2187 18.1904 12.0979 18.3184 12.013C18.4464 11.9281 18.5967 11.8827 18.7503 11.8827C19.1886 11.8827 19.6182 11.7597 19.9902 11.5278C20.3621 11.2959 20.6616 10.9643 20.8546 10.5707C21.0475 10.1771 21.1262 9.73724 21.0817 9.30115C21.0373 8.86506 20.8714 8.45019 20.6029 8.10365C20.3345 7.75712 19.9742 7.49281 19.5631 7.34076C19.152 7.1887 18.7064 7.15499 18.2771 7.24346C17.8478 7.33192 17.4518 7.53902 17.1343 7.84122C16.8168 8.14342 16.5903 8.52861 16.4808 8.95304C16.4551 9.05243 16.4101 9.1458 16.3484 9.22781C16.2867 9.30981 16.2094 9.37886 16.121 9.431C16.0326 9.48315 15.9347 9.51736 15.8331 9.5317C15.7315 9.54604 15.628 9.54022 15.5286 9.51457C15.4292 9.48892 15.3359 9.44395 15.2539 9.38221C15.1718 9.32048 15.1028 9.2432 15.0507 9.15479C14.9985 9.06637 14.9643 8.96855 14.95 8.86692C14.9356 8.76528 14.9414 8.66181 14.9671 8.56242C15.1192 7.97386 15.4066 7.42892 15.8063 6.97097C16.2061 6.51301 16.7072 6.15468 17.2699 5.92448C17.8325 5.69428 18.4411 5.59857 19.0472 5.64497C19.6533 5.69136 20.2403 5.87858 20.7613 6.19173C21.2823 6.50487 21.7231 6.9353 22.0485 7.44877C22.3739 7.96223 22.575 8.54456 22.6358 9.14941C22.6965 9.75426 22.6153 10.3649 22.3985 10.9329C22.1817 11.5008 21.8354 12.0103 21.387 12.4208C22.4493 12.8808 23.3728 13.6107 24.0657 14.538C24.1273 14.6203 24.172 14.7139 24.1973 14.8135C24.2226 14.9131 24.228 15.0167 24.2133 15.1184C24.1985 15.2201 24.1638 15.3179 24.1111 15.4061C24.0585 15.4944 23.989 15.5714 23.9065 15.6327ZM18.6448 21.6484C18.7014 21.7373 18.7393 21.8367 18.7564 21.9407C18.7735 22.0447 18.7694 22.151 18.7443 22.2533C18.7193 22.3557 18.6738 22.4519 18.6105 22.5362C18.5473 22.6205 18.4677 22.6911 18.3765 22.7439C18.2853 22.7966 18.1843 22.8303 18.0797 22.843C17.9751 22.8557 17.869 22.8471 17.7678 22.8178C17.6666 22.7884 17.5724 22.7389 17.4909 22.6722C17.4093 22.6055 17.3421 22.523 17.2933 22.4296C16.8011 21.5963 16.1002 20.9057 15.2597 20.4259C14.4192 19.9461 13.4681 19.6938 12.5003 19.6938C11.5325 19.6938 10.5814 19.9461 9.74089 20.4259C8.90038 20.9057 8.19947 21.5963 7.70732 22.4296C7.65848 22.523 7.59126 22.6055 7.50971 22.6722C7.42815 22.7389 7.33394 22.7884 7.23274 22.8178C7.13155 22.8471 7.02546 22.8557 6.92087 22.843C6.81627 22.8303 6.71532 22.7966 6.6241 22.7439C6.53288 22.6911 6.45326 22.6205 6.39005 22.5362C6.32683 22.4519 6.28132 22.3557 6.25625 22.2533C6.23119 22.151 6.22708 22.0447 6.24418 21.9407C6.26128 21.8367 6.29924 21.7373 6.35576 21.6484C7.11318 20.347 8.26806 19.3228 9.65068 18.7265C8.87268 18.1308 8.30091 17.3063 8.01572 16.3689C7.73054 15.4315 7.74629 14.4282 8.06076 13.5002C8.37522 12.5722 8.9726 11.7661 9.76892 11.1951C10.5652 10.6242 11.5204 10.3171 12.5003 10.3171C13.4801 10.3171 14.4354 10.6242 15.2317 11.1951C16.028 11.7661 16.6254 12.5722 16.9398 13.5002C17.2543 14.4282 17.27 15.4315 16.9849 16.3689C16.6997 17.3063 16.1279 18.1308 15.3499 18.7265C16.7325 19.3228 17.8874 20.347 18.6448 21.6484ZM12.5003 18.1327C13.1184 18.1327 13.7225 17.9495 14.2365 17.6061C14.7504 17.2627 15.1509 16.7746 15.3874 16.2036C15.6239 15.6326 15.6858 15.0043 15.5652 14.3981C15.4447 13.7919 15.147 13.2351 14.71 12.798C14.273 12.361 13.7161 12.0634 13.1099 11.9428C12.5038 11.8222 11.8754 11.8841 11.3044 12.1206C10.7334 12.3571 10.2453 12.7577 9.90195 13.2716C9.55857 13.7855 9.37529 14.3897 9.37529 15.0077C9.37529 15.8365 9.70453 16.6314 10.2906 17.2174C10.8766 17.8035 11.6715 18.1327 12.5003 18.1327ZM7.03154 12.664C7.03154 12.4568 6.94923 12.2581 6.80272 12.1116C6.65621 11.965 6.45749 11.8827 6.25029 11.8827C5.81194 11.8827 5.38239 11.7597 5.01042 11.5278C4.63845 11.2959 4.33898 10.9643 4.14603 10.5707C3.95307 10.1771 3.87436 9.73724 3.91885 9.30115C3.96333 8.86506 4.12921 8.45019 4.39766 8.10365C4.66611 7.75712 5.02637 7.49281 5.4375 7.34076C5.84863 7.1887 6.29417 7.15499 6.7235 7.24346C7.15283 7.33192 7.54875 7.53902 7.86628 7.84122C8.18382 8.14342 8.41024 8.52861 8.51982 8.95304C8.57162 9.15377 8.70104 9.3257 8.8796 9.431C9.05817 9.53631 9.27125 9.56637 9.47197 9.51457C9.6727 9.46277 9.84462 9.33335 9.94993 9.15479C10.0552 8.97623 10.0853 8.76315 10.0335 8.56242C9.88139 7.97386 9.59402 7.42892 9.19425 6.97097C8.79448 6.51301 8.29334 6.15468 7.73072 5.92448C7.16809 5.69428 6.5595 5.59857 5.95338 5.64497C5.34725 5.69136 4.76032 5.87858 4.23928 6.19173C3.71825 6.50487 3.27749 6.9353 2.95207 7.44877C2.62666 7.96223 2.42557 8.54456 2.36481 9.14941C2.30406 9.75426 2.3853 10.3649 2.60209 10.9329C2.81888 11.5008 3.16523 12.0103 3.61357 12.4208C2.55233 12.8812 1.6299 13.6111 0.937793 14.538C0.876172 14.6201 0.83132 14.7135 0.805799 14.8129C0.780277 14.9123 0.774586 15.0158 0.78905 15.1174C0.803514 15.219 0.837849 15.3168 0.890096 15.4051C0.942343 15.4934 1.01148 15.5706 1.09355 15.6322C1.17563 15.6939 1.26904 15.7387 1.36845 15.7642C1.46786 15.7898 1.57132 15.7955 1.67293 15.781C1.77454 15.7665 1.87231 15.7322 1.96065 15.6799C2.04899 15.6277 2.12617 15.5586 2.18779 15.4765C2.65868 14.8435 3.2716 14.33 3.97721 13.9772C4.68282 13.6244 5.4614 13.4422 6.25029 13.4452C6.45749 13.4452 6.65621 13.3629 6.80272 13.2164C6.94923 13.0699 7.03154 12.8712 7.03154 12.664Z" fill="white" fill-opacity="0.7"/>
</svg>
