<svg width="22" height="19" viewBox="0 0 22 19" fill="none" xmlns="http://www.w3.org/2000/svg">
<path d="M19.4499 5.25584C19.4634 5.44391 19.4634 5.63203 19.4634 5.82011C19.4634 11.5567 15.0971 18.1667 7.11679 18.1667C4.65821 18.1667 2.37431 17.4546 0.453125 16.2187C0.802442 16.2589 1.13828 16.2724 1.50104 16.2724C3.52966 16.2724 5.39712 15.5872 6.88839 14.4184C4.98065 14.3781 3.3819 13.1286 2.83106 11.409C3.09978 11.4493 3.36846 11.4761 3.65062 11.4761C4.04022 11.4761 4.42985 11.4224 4.79257 11.3284C2.80423 10.9253 1.31292 9.1788 1.31292 7.06954V7.01582C1.89059 7.33826 2.56239 7.53978 3.27438 7.56662C2.10555 6.78738 1.3398 5.45735 1.3398 3.95265C1.3398 3.14657 1.55471 2.40766 1.93091 1.76279C4.06705 4.396 7.27799 6.11563 10.8785 6.30375C10.8113 5.98131 10.771 5.64547 10.771 5.3096C10.771 2.91818 12.7056 0.970154 15.1104 0.970154C16.3599 0.970154 17.4884 1.49411 18.2811 2.3405C19.2618 2.15242 20.2022 1.78967 21.0352 1.29259C20.7127 2.30022 20.0276 3.14662 19.1274 3.68397C20.0007 3.58997 20.8471 3.34809 21.6263 3.01226C21.0353 3.87205 20.2963 4.6378 19.4499 5.25584Z" fill="black"/>
</svg>
