<svg width="15" height="12" viewBox="0 0 15 12" fill="none" xmlns="http://www.w3.org/2000/svg">
<path d="M12.7692 3.55539C12.7778 3.67533 12.7778 3.7953 12.7778 3.91524C12.7778 7.57368 9.99323 11.7891 4.90394 11.7891C3.33602 11.7891 1.8795 11.3349 0.654297 10.5467C0.877068 10.5724 1.09124 10.581 1.32258 10.581C2.6163 10.581 3.80725 10.1441 4.75828 9.39866C3.54165 9.37294 2.52207 8.57614 2.17079 7.47945C2.34216 7.50514 2.5135 7.52228 2.69344 7.52228C2.9419 7.52228 3.19039 7.488 3.4217 7.42805C2.15367 7.171 1.20261 6.05719 1.20261 4.71205V4.67779C1.57102 4.88342 1.99944 5.01193 2.4535 5.02905C1.7081 4.5321 1.21976 3.6839 1.21976 2.7243C1.21976 2.21024 1.35682 1.73901 1.59673 1.32775C2.95902 3.00704 5.00674 4.1037 7.30289 4.22367C7.26006 4.01805 7.23435 3.80387 7.23435 3.58967C7.23435 2.06458 8.46812 0.822266 10.0018 0.822266C10.7986 0.822266 11.5182 1.15641 12.0238 1.69618C12.6492 1.57624 13.2489 1.3449 13.7802 1.02789C13.5745 1.67049 13.1376 2.21027 12.5635 2.55296C13.1204 2.49301 13.6602 2.33876 14.1571 2.12458C13.7802 2.6729 13.309 3.16125 12.7692 3.55539Z" fill="black"/>
</svg>
