<svg width="54" height="40" viewBox="0 0 54 40" fill="none" xmlns="http://www.w3.org/2000/svg">
<path d="M28.876 39.6249V28.3749H36.376L27.001 17.1249L17.626 28.3749H25.126V39.6249H15.751V39.5311C15.436 39.5499 15.136 39.6249 14.8135 39.6249C11.0839 39.6249 7.50702 38.1433 4.86979 35.5061C2.23256 32.8688 0.750977 29.292 0.750977 25.5624C0.750977 18.3474 6.20723 12.4674 13.2085 11.6611C13.8223 8.45223 15.5351 5.55751 18.0524 3.47488C20.5696 1.39224 23.7339 0.251858 27.001 0.249878C30.2685 0.251707 33.4333 1.39195 35.9512 3.47454C38.469 5.55713 40.1826 8.45192 40.7972 11.6611C47.7985 12.4674 53.2472 18.3474 53.2472 25.5624C53.2472 29.292 51.7656 32.8688 49.1284 35.5061C46.4912 38.1433 42.9143 39.6249 39.1847 39.6249C38.8697 39.6249 38.566 39.5499 38.2472 39.5311V39.6249H28.876Z" fill="#707070"/>
</svg>
