<svg width="22" height="21" viewBox="0 0 22 21" fill="none" xmlns="http://www.w3.org/2000/svg">
<path d="M8.14272 9.28574C10.1152 9.28574 11.7141 7.68676 11.7141 5.71431C11.7141 3.74187 10.1152 2.14288 8.14272 2.14288C6.17027 2.14288 4.57129 3.74187 4.57129 5.71431C4.57129 7.68676 6.17027 9.28574 8.14272 9.28574Z" stroke="white" stroke-opacity="0.7" stroke-width="1.5" stroke-linecap="round" stroke-linejoin="round"/>
<path d="M1.71387 19.2857H8.14244H14.571V18.5112C14.5596 17.4224 14.2725 16.3542 13.7363 15.4064C13.2002 14.4586 12.4326 13.6621 11.5052 13.0914C10.5778 12.5207 9.52088 12.1944 8.43318 12.1429C8.3362 12.1383 8.23927 12.1359 8.14244 12.1357C8.04561 12.1359 7.94867 12.1383 7.8517 12.1429C6.76399 12.1944 5.70708 12.5207 4.77969 13.0914C3.8523 13.6621 3.08468 14.4586 2.54854 15.4064C2.01241 16.3542 1.72524 17.4224 1.71387 18.5112V19.2857Z" stroke="white" stroke-opacity="0.7" stroke-width="1.5" stroke-linecap="round" stroke-linejoin="round"/>
<path d="M13.8574 9.28574C15.8299 9.28574 17.4289 7.68676 17.4289 5.71431C17.4289 3.74187 15.8299 2.14288 13.8574 2.14288" stroke="white" stroke-opacity="0.7" stroke-width="1.5" stroke-linecap="round" stroke-linejoin="round"/>
<path d="M17.429 19.2857H20.2861V18.5112C20.2748 17.4223 19.9876 16.3541 19.4515 15.4063C18.9153 14.4585 18.1477 13.6621 17.2203 13.0914C16.6208 12.7225 15.9672 12.4557 15.2861 12.2992" stroke="white" stroke-opacity="0.7" stroke-width="1.5" stroke-linecap="round" stroke-linejoin="round"/>
</svg>
