<svg width="30" height="30" viewBox="0 0 30 30" fill="none" xmlns="http://www.w3.org/2000/svg">
<path d="M29.9331 15C29.9331 6.75253 23.2472 0.0666504 14.9997 0.0666504C6.75228 0.0666504 0.0664062 6.75253 0.0664062 15C0.0664062 22.4535 5.52728 28.6316 12.6664 29.7519V19.3167H8.87474V15H12.6664V11.71C12.6664 7.96732 14.8959 5.89998 18.3069 5.89998C19.9409 5.89998 21.6497 6.19165 21.6497 6.19165V9.86665H19.7667C17.9117 9.86665 17.3331 11.0179 17.3331 12.1988V15H21.4747L20.8127 19.3167H17.3331V29.7519C24.4722 28.6316 29.9331 22.4538 29.9331 15Z" fill="#1877F2"/>
<path d="M20.8129 19.3167L21.475 15H17.3333V12.1989C17.3333 11.0179 17.912 9.86669 19.767 9.86669H21.65V6.19169C21.65 6.19169 19.9411 5.90002 18.3072 5.90002C14.8962 5.90002 12.6667 7.96736 12.6667 11.71V15H8.875V19.3167H12.6667V29.7519C13.427 29.8712 14.2061 29.9334 15 29.9334C15.7939 29.9334 16.573 29.8712 17.3333 29.7519V19.3167H20.8129Z" fill="white"/>
</svg>
