<svg width="27" height="27" viewBox="0 0 27 27" fill="none" xmlns="http://www.w3.org/2000/svg">
<mask id="mask0_587_10795" style="mask-type:luminance" maskUnits="userSpaceOnUse" x="0" y="0" width="27" height="27">
<path fill-rule="evenodd" clip-rule="evenodd" d="M26.686 11.0455H13.814V16.2614H21.2233C20.5326 19.575 17.6442 21.4773 13.814 21.4773C9.29302 21.4773 5.65116 17.9182 5.65116 13.5C5.65116 9.08182 9.29302 5.52273 13.814 5.52273C15.7605 5.52273 17.5186 6.19773 18.9 7.30227L22.9186 3.375C20.4698 1.28864 17.3302 0 13.814 0C6.15349 0 0 6.01364 0 13.5C0 20.9864 6.15349 27 13.814 27C20.7209 27 27 22.0909 27 13.5C27 12.7023 26.8744 11.8432 26.686 11.0455Z" fill="white"/>
</mask>
<g mask="url(#mask0_587_10795)">
<path d="M-1.25586 21.4772V5.52264L9.41856 13.4999L-1.25586 21.4772Z" fill="#FBBC05"/>
</g>
<mask id="mask1_587_10795" style="mask-type:luminance" maskUnits="userSpaceOnUse" x="0" y="0" width="27" height="27">
<path fill-rule="evenodd" clip-rule="evenodd" d="M26.686 11.0455H13.814V16.2614H21.2233C20.5326 19.575 17.6442 21.4773 13.814 21.4773C9.29302 21.4773 5.65116 17.9182 5.65116 13.5C5.65116 9.08182 9.29302 5.52273 13.814 5.52273C15.7605 5.52273 17.5186 6.19773 18.9 7.30227L22.9186 3.375C20.4698 1.28864 17.3302 0 13.814 0C6.15349 0 0 6.01364 0 13.5C0 20.9864 6.15349 27 13.814 27C20.7209 27 27 22.0909 27 13.5C27 12.7023 26.8744 11.8432 26.686 11.0455Z" fill="white"/>
</mask>
<g mask="url(#mask1_587_10795)">
<path d="M-1.25586 5.52264L9.41856 13.4999L13.8139 9.75674L28.8837 7.36355V-1.22736H-1.25586V5.52264Z" fill="#EA4335"/>
</g>
<mask id="mask2_587_10795" style="mask-type:luminance" maskUnits="userSpaceOnUse" x="0" y="0" width="27" height="27">
<path fill-rule="evenodd" clip-rule="evenodd" d="M26.686 11.0455H13.814V16.2614H21.2233C20.5326 19.575 17.6442 21.4773 13.814 21.4773C9.29302 21.4773 5.65116 17.9182 5.65116 13.5C5.65116 9.08182 9.29302 5.52273 13.814 5.52273C15.7605 5.52273 17.5186 6.19773 18.9 7.30227L22.9186 3.375C20.4698 1.28864 17.3302 0 13.814 0C6.15349 0 0 6.01364 0 13.5C0 20.9864 6.15349 27 13.814 27C20.7209 27 27 22.0909 27 13.5C27 12.7023 26.8744 11.8432 26.686 11.0455Z" fill="white"/>
</mask>
<g mask="url(#mask2_587_10795)">
<path d="M-1.25586 21.4772L17.5814 7.36355L22.5418 7.97719L28.8837 -1.22736V28.2272H-1.25586V21.4772Z" fill="#34A853"/>
</g>
<mask id="mask3_587_10795" style="mask-type:luminance" maskUnits="userSpaceOnUse" x="0" y="0" width="27" height="27">
<path fill-rule="evenodd" clip-rule="evenodd" d="M26.686 11.0455H13.814V16.2614H21.2233C20.5326 19.575 17.6442 21.4773 13.814 21.4773C9.29302 21.4773 5.65116 17.9182 5.65116 13.5C5.65116 9.08182 9.29302 5.52273 13.814 5.52273C15.7605 5.52273 17.5186 6.19773 18.9 7.30227L22.9186 3.375C20.4698 1.28864 17.3302 0 13.814 0C6.15349 0 0 6.01364 0 13.5C0 20.9864 6.15349 27 13.814 27C20.7209 27 27 22.0909 27 13.5C27 12.7023 26.8744 11.8432 26.686 11.0455Z" fill="white"/>
</mask>
<g mask="url(#mask3_587_10795)">
<path d="M28.8849 28.2272L9.41983 13.4999L6.9082 11.659L28.8849 5.52264V28.2272Z" fill="#4285F4"/>
</g>
</svg>
